<?xml version="1.0" standalone="no"?>
<!DOCTYPE svg PUBLIC "-//W3C//DTD SVG 1.1//EN" "http://www.w3.org/Graphics/SVG/1.1/DTD/svg11.dtd" >
<svg>
<metadata>
Created by FontForge 20090914 at Tue Feb 11 22:24:57 2014
 By www-data
</metadata>
<defs>
<font id="Harabara" horiz-adv-x="345" >
  <font-face 
    font-family="Harabara"
    font-weight="700"
    font-stretch="normal"
    units-per-em="512"
    panose-1="2 11 8 3 5 3 2 2 2 4"
    ascent="409"
    descent="-103"
    x-height="266"
    cap-height="344"
    bbox="-39 -112 511 436"
    underline-thickness="0"
    underline-position="0"
    unicode-range="U+0020-U+00FC"
  />
<missing-glyph horiz-adv-x="512" 
d="M149 345h56.001l125 -345h-75l-23 71h-134l-23 -71h-75l115 322c5.33301 15.333 16.666 23 33.999 23zM164.001 276l-47 -147h96z" />
    <glyph glyph-name=".notdef" horiz-adv-x="512" 
d="M149 345h56.001l125 -345h-75l-23 71h-134l-23 -71h-75l115 322c5.33301 15.333 16.666 23 33.999 23zM164.001 276l-47 -147h96z" />
    <glyph glyph-name="space" unicode=" " horiz-adv-x="115" 
 />
    <glyph glyph-name="exclam" unicode="!" horiz-adv-x="74" 
d="M12 97l-12 211c0 10 3.5 18.5 10.5 25.5s15.5 10.5 25.5 10.5h35l-12 -247h-47zM27 69h43v-69h-69v43c0 17.333 8.66699 26 26 26z" />
    <glyph glyph-name="quotedbl" unicode="&#x22;" horiz-adv-x="172" 
d="M40 226h-40v56c-0 20 5.33301 36 16 48s26.667 20 48 24v-12c0 -4 -1 -7 -3 -9s-6 -5 -12 -9c-3.33301 -1.33301 -7 -4 -11 -8c-5.33301 -6 -8.33301 -13.333 -9 -22c0 -2 0.333008 -4 1 -6s4 -3 10 -3v0h23v-37c0 -14.667 -7.66699 -22 -23 -22zM139 226
l-38.999 -0.000976562v56c0 20 5.33301 36 16 48s26.667 20 48 24v-12c0 -6 -5.33301 -12 -16 -18c-4 -2 -7.66699 -4.66699 -11 -8c-4.66699 -5.33301 -7.33398 -12.666 -8.00098 -21.999c-2 -6 1.33301 -9 10 -9h1h23v-37c0 -14.667 -8 -22 -24 -22z" />
    <glyph glyph-name="numbersign" unicode="#" horiz-adv-x="399" 
d="M38 197l11 33c2.66699 8 8.16699 15.167 16.5 21.5s16.833 9.83301 25.5 10.5h44l28 82h20c18.667 0 29.167 -6.16699 31.5 -18.5s2.5 -22.5 0.5 -30.5l-12 -33h47l28 82h21c20 0 30.667 -6.16699 32 -18.5s1 -22.5 -1 -30.5l-11 -33h61l-22 -65h-61l-16 -49h61l-21 -65
h-62l-28 -83h-68l27 83h-46l-28 -83h-69l28 83h-75l11 33c2.66699 8.66699 8.16699 16.167 16.5 22.5s16.833 9.5 25.5 9.5h44l16 49h-75zM228 197h-46l-17 -49h47z" />
    <glyph glyph-name="dollar" unicode="$" horiz-adv-x="283" 
d="M-6 109l68.002 0.000976562c2.66699 -20 10.334 -34 23.001 -42c7.33301 -5.33301 16.666 -9 27.999 -11v92h-1l-2 1c-0.666992 0 -1.66699 0.166992 -3 0.5s-2.66602 0.5 -3.99902 0.5c-32.667 6.66699 -55.334 14.667 -68.001 24c-11.333 6 -20.666 16.333 -27.999 31
c-5.33301 11.333 -8 26.666 -8 45.999c0 34 11 59.333 33 76c18 14.667 45 23.334 81 26.001v43h1c10 0 18.5 -3.5 25.5 -10.5s10.5 -15.5 10.5 -25.5v-7c30.667 -3.33301 55 -12.333 73 -27c22 -19.333 33.667 -46 35 -80h-40c-15.333 0 -26 7 -32 21v0
c-2.66699 5.33301 -7.33398 11 -14.001 17c-8 4.66699 -15.333 8 -22 10v-85c12 -4 22.167 -7 30.5 -9s15.166 -4 20.499 -6c10 -3.33301 19.333 -7.33301 28 -12c12.667 -7.33301 23 -17.333 31 -30c6.66699 -12.667 10 -28 10 -46c0 -35.333 -12 -63 -36 -83
c-19.333 -15.333 -47.333 -24.333 -84 -27v-43h-37v43c-34 2 -61 11.333 -81 28c-22.667 19.333 -35.334 47.666 -38.001 84.999zM150.002 54.001c14 0.666992 26 4.33203 36 10.999s15 17.334 15 32.001c0 15.333 -17 29 -51 41v-84zM113.002 295.999
c-14 -1.33301 -24.667 -4.66895 -32 -10.002c-10 -7.33301 -15 -17.666 -15 -30.999c0 -17.333 15.667 -29.666 47 -36.999v78z" />
    <glyph glyph-name="uni0025" unicode="%" horiz-adv-x="333" 
d="M31 0l191 330c4 7.33301 8.83301 11.5 14.5 12.5s12.167 1.5 19.5 1.5h31l-199 -344h-57zM247 155c-20 0 -36.667 -7 -50 -21s-20 -30.667 -20 -50c0 -20 6.66699 -36.833 20 -50.5s30 -20.5 50 -20.5s36.833 6.83301 50.5 20.5s20.5 30.5 20.5 50.5
c0 19.333 -6.83301 36 -20.5 50s-30.5 21 -50.5 21zM71 331c19.333 0 36 -6.83301 50 -20.5s21 -30.167 21 -49.5c0 -20 -7 -36.833 -21 -50.5s-30.667 -20.5 -50 -20.5c-20 0 -36.833 6.83301 -50.5 20.5s-20.5 30.5 -20.5 50.5c-0 19.333 6.83301 35.833 20.5 49.5
s30.5 20.5 50.5 20.5zM71 295c-10 0 -18.333 -3.33301 -25 -10s-10 -14.667 -10 -24c0 -10 3.33301 -18.333 10 -25s15 -10 25 -10c9.33301 0 17.5 3.33301 24.5 10s10.5 15 10.5 25c0 9.33301 -3.5 17.333 -10.5 24s-15.167 10 -24.5 10zM247 119
c10 0 18.333 -3.5 25 -10.5s10 -15.167 10 -24.5c0 -10 -3.33301 -18.333 -10 -25s-15 -10 -25 -10s-18.167 3.33301 -24.5 10s-9.5 15 -9.5 25c0 9.33301 3.16699 17.5 9.5 24.5s14.5 10.5 24.5 10.5z" />
    <glyph glyph-name="ampersand" unicode="&#x26;" horiz-adv-x="316" 
d="M100 151l-17.999 -13c-8 -6 -13.333 -12 -16 -18c-4 -7.33301 -6 -15.333 -6 -24c0 -12.667 4.66699 -23.667 14 -33s20.666 -14 33.999 -14c9.33301 0 19 2 29 6c8 3.33301 16.333 9.33301 25 18zM118.001 224l9.00293 6c7.33301 5.33301 12.666 11 15.999 17
c4 6.66699 6 14 6 22s-2.66699 14.333 -8 19c-4.66699 4.66699 -11.334 7 -20.001 7s-15.334 -2.33301 -20.001 -7c-5.33301 -5.33301 -8 -11.666 -8 -18.999c0 -2.66699 1.33301 -7.33398 4 -14.001c0.666992 -3.33301 2 -6.33301 4 -9l6 -8zM66.0039 193l-14.001 17.998
c-7.33301 8.66699 -12.333 17.334 -15 26.001c-3.33301 8.66699 -5 17.334 -5 26.001c0 25.333 8.33301 45 25 59c16 15.333 37.667 23 65 23c26 0 46.667 -7 62 -21c15.333 -13.333 23 -31.666 23 -54.999c0 -18 -4.33301 -33.667 -13 -47c-10 -14 -24.333 -26.667 -43 -38
l50 -61c4 7.33301 7.66699 15.666 11 24.999l5 32h36c10.667 0 17 -3 19 -9s2.66699 -11.667 2 -17c-2 -9.33301 -4.66699 -19.333 -8 -30c-8 -18 -17.333 -34 -28 -48l63 -76h-80l-23 29c-7.33301 -6.66699 -14.666 -12.667 -21.999 -18s-15 -9 -23 -11
c-22 -4.66699 -45 -6 -69 -4s-44.333 9.66699 -61 23c-19.333 18 -29 42 -29 72c0 22 5.33301 41 16 57c11.333 16 30 31 56 45z" />
    <glyph glyph-name="quotesingle" unicode="'" horiz-adv-x="98" 
d="M94 354l-60.999 -63h-33l28 51c1.33301 2 3.66602 4.5 6.99902 7.5s8 4.5 14 4.5h45z" />
    <glyph glyph-name="parenleft" unicode="(" horiz-adv-x="130" 
d="M124 389c-22 -36.667 -37.667 -72.001 -47 -106.001c-10.667 -36 -16 -74 -16 -114c0 -41.333 5.33301 -79.333 16 -114c9.33301 -34.667 25 -70 47 -106h-49c-27.333 36.667 -47.666 73.667 -60.999 111c-13.333 34.667 -20 71 -20 109c0 36 6.66699 72.333 20 109
c9.33301 26.667 22.666 53.334 39.999 80.001c12 18.667 26.167 28.5 42.5 29.5s25.5 1.5 27.5 1.5z" />
    <glyph glyph-name="parenright" unicode=")" horiz-adv-x="138" 
d="M0 -50c21.333 36 37.333 70.9971 48 104.997c10 36.667 15 74.667 15 114c0 40 -5 78 -15 114c-11.333 36.667 -27.333 72.334 -48 107.001h49c27.333 -38.667 48 -76 62 -112c14 -37.333 21 -73.666 21 -108.999c0 -34.667 -7 -71 -21 -109
c-9.33301 -25.333 -23 -51.666 -41 -78.999c-12 -18.667 -26.167 -28.5 -42.5 -29.5s-25.5 -1.5 -27.5 -1.5z" />
    <glyph glyph-name="asterisk" unicode="*" horiz-adv-x="120" 
d="M58 353l11.999 -0.000976562v-38l25 7c8 2.66699 13.333 -0.666016 16 -9.99902l4 -12l-36 -10l14 -20c4.66699 -8 3.33398 -14.333 -3.99902 -19l-11 -7l-21 30l-14 -19c-6 -7.33301 -12.333 -8 -19 -2l-10 7l21 30l-35 10l4 12c2 8.66699 7.33301 12 16 10l24 -7v25
c0 8.66699 4.66699 13 14 13z" />
    <glyph glyph-name="plus" unicode="+" horiz-adv-x="237" 
d="M0 110v24c-0 14.667 7.33301 22 22 22h68v90h24c14.667 0 22 -7.33301 22 -22v-68h90v-46h-90v-90h-46v90h-90z" />
    <glyph glyph-name="comma" unicode="," horiz-adv-x="58" 
d="M22 55l34 0.00195312v-53c0 -16.667 -4.66699 -31.334 -14 -44.001c-10.667 -10.667 -24.667 -17.667 -42 -21v11c0 5.33301 4.66699 10.666 14 15.999c3.33301 2 6.33301 4.66699 9 8c4.66699 7.33301 7 14.333 7 21c1.33301 4.66699 -1.66699 7 -9 7v0h-20v34
c0 14 7 21 21 21z" />
    <glyph glyph-name="hyphen" unicode="-" horiz-adv-x="144" 
d="M0 105v29c0 18 9 27 27 27h111v-56h-138z" />
    <glyph glyph-name="period" unicode="." horiz-adv-x="57" 
d="M21 55h34v-55h-55v34c0 14 7 21 21 21z" />
    <glyph glyph-name="slash" unicode="/" horiz-adv-x="147" 
d="M101 345h39l-97 -332c-2.66699 -8.66699 -8.66699 -13 -18 -13h-25z" />
    <glyph glyph-name="zero" unicode="0" horiz-adv-x="261" 
d="M121 350c37.333 0 67.333 -12.332 90 -36.999c25.333 -28.667 38 -75.667 38 -141c0 -66.667 -13 -114 -39 -142c-20.667 -23.333 -50.334 -35 -89.001 -35s-69.667 12.667 -93 38c-22.667 25.333 -34 71.666 -34 138.999c0 66 12.667 113.333 38 142
c20.667 24 50.334 36 89.001 36zM121 294.001c-10 0 -18.333 -2.66602 -25 -7.99902c-10 -8 -17.667 -22.833 -23 -44.5s-8 -44.834 -8 -69.501c0 -25.333 2.5 -49 7.5 -71s13.167 -36.667 24.5 -44c7.33301 -5.33301 15.333 -8 24 -8c8 0 16.333 2.66699 25 8
c10 7.33301 17.667 22 23 44s8 45.333 8 70s-2.83301 48 -8.5 70s-13.5 37 -23.5 45c-6.66699 5.33301 -14.667 8 -24 8z" />
    <glyph glyph-name="one" unicode="1" horiz-adv-x="140" 
d="M65 0l-0.000976562 232h-65v50c14.667 0 29.834 4.83301 45.501 14.5s26.5 25.5 32.5 47.5h20v0c10 0 18.5 -3.33301 25.5 -10s10.5 -15 10.5 -25v-309h-69z" />
    <glyph glyph-name="two" unicode="2" horiz-adv-x="256" 
d="M-6 0c0 32 7.66699 60.335 23 85.002c14 22.667 35 43.667 63 63c2 1.33301 5 3.16602 9 5.49902l14 8.5c22 14 39 27 51 39s18 24.667 18 38c0 16 -4.66699 28.333 -14 37c-9.33301 9.33301 -22 14 -38 14c-18 0 -32 -5.66699 -42 -17c-9.33301 -12 -14 -27.667 -14 -47
v-3h-36c-14 0 -22.167 3.83301 -24.5 11.5s-2.83301 16.167 -1.5 25.5c4.66699 22 14.334 41 29.001 57c22 21.333 53 32 93 32c37.333 0 66.666 -9.66699 87.999 -29c21.333 -20.667 32 -47.334 32 -80.001c0 -24.667 -5.66699 -45 -17 -61c-12 -18 -34 -37.667 -66 -59
c-11.333 -8 -25.5 -17.333 -42.5 -28s-26.5 -21 -28.5 -31h151v-61h-247z" />
    <glyph glyph-name="three" unicode="3" horiz-adv-x="259" 
d="M-6 109l67 -0.00390625c0 -19.333 4.66699 -33.666 14 -42.999c10 -10 24 -15 42 -15c18.667 0 32.334 4.66699 41.001 14c10 8.66699 15 21.667 15 39c0 16.667 -5.66699 29.667 -17 39c-10.667 8.66699 -27.667 13 -51 13h-2.5h-2.5
c-1.33301 0 -2.5 -0.166992 -3.5 -0.5l-1.5 -0.5v48h7c20.667 0 36 4 46 12s15 20 15 36c0 12.667 -4.33301 23.334 -13 32.001c-7.33301 7.33301 -18.666 11 -33.999 11c-16.667 0 -28.667 -4.33301 -36 -13c-8.66699 -8.66699 -13 -21.667 -13 -39v-2h-36v0
c-14 0 -22.333 3.83301 -25 11.5s-3 15.834 -1 24.501c4.66699 18 13.667 33 27 45c21.333 19.333 50.333 29 87 29c35.333 0 63.333 -8.66699 84 -26c21.333 -17.333 32 -40 32 -68c0 -15.333 -3.66699 -28.666 -11 -39.999c-8 -12 -18.667 -21.333 -32 -28
c18 -8.66699 31.667 -19.334 41 -32.001c9.33301 -13.333 14 -29.666 14 -48.999c0 -35.333 -11.667 -63 -35 -83c-22.667 -19.333 -54.334 -29 -95.001 -29s-71.334 9.66699 -92.001 29c-20.667 18.667 -31 46.667 -31 84v1z" />
    <glyph glyph-name="four" unicode="4" horiz-adv-x="273" 
d="M150 0l-0.000976562 77h-150v62l131 205h52c10 0 18.333 -3.5 25 -10.5s10.334 -15.167 11.001 -24.5v-21v0v-155h41v-56h-41v-77h-69zM150.999 131v152l-96 -152h96z" />
    <glyph glyph-name="five" unicode="5" horiz-adv-x="259" 
d="M-6 100l68.001 0.00195312c0.666992 -16 6 -28.333 16 -37c8.66699 -8 21 -12 37 -12c19.333 0 34 5.33301 44 16c10 12 15 28.333 15 49c0 20 -5.33301 35.333 -16 46c-10 11.333 -24.333 17 -43 17c-10 0 -19 -2 -27 -6c-8.66699 -4.66699 -15 -10.667 -19 -18l-64 3
l23 187h168c9.33301 -0.666992 17.5 -4.33398 24.5 -11.001s10.5 -15 10.5 -25v-21v-3h-153l-9 -67c6 5.33301 14.667 9.66602 26 12.999c10.667 3.33301 22 5 34 5c35.333 0 63.666 -10.667 84.999 -32c22 -22 33 -50.333 33 -85c0 -38 -12 -68.333 -36 -91
c-23.333 -22 -55.333 -33 -96 -33c-38 0 -67.333 9 -88 27c-20.667 18.667 -31.667 44.667 -33 78z" />
    <glyph glyph-name="six" unicode="6" horiz-adv-x="261" 
d="M68 114c0 -19.333 4.99902 -35 14.999 -47c9.33301 -11.333 23 -17 41 -17c17.333 0 30.333 5.66699 39 17c9.33301 11.333 14 27 14 47c0 18.667 -5 33 -15 43c-9.33301 10 -22.666 15 -39.999 15c-16.667 0 -30 -5 -40 -15c-9.33301 -10.667 -14 -25 -14 -43z
M66.999 204c7.33301 7.33301 17.001 13.3359 29.001 18.0029c14 4.66699 26.667 7 38 7c34 0 62 -10.333 84 -31c20.667 -22 31 -49.333 31 -82c0 -36 -11.333 -65.667 -34 -89c-22.667 -21.333 -53 -32 -91 -32c-43.333 0 -76 14 -98 42c-21.333 28 -32 70.333 -32 127
c0 60.667 11.667 106.667 35 138c24 32 58.333 48 103 48c31.333 0 56.666 -8 75.999 -24c18.667 -16.667 29.334 -38.334 32.001 -65.001h-52c-6.66699 0 -11.834 2 -15.501 6l-11.5 13c-4 3.33301 -8.66699 6.66602 -14 9.99902s-13 5 -23 5
c-17.333 0 -31 -7.66699 -41 -23c-10 -14.667 -15.333 -37.334 -16 -68.001z" />
    <glyph glyph-name="seven" unicode="7" horiz-adv-x="276" 
d="M125 0h-73.999c1.33301 46.667 13 94.667 35 144c19.333 46 48.666 92.667 87.999 140h-174v60h228c18 0 28.333 -6.5 31 -19.5s0 -24.167 -8 -33.5c-19.333 -22 -36.5 -44.167 -51.5 -66.5s-27.5 -45.5 -37.5 -69.5c-22 -50 -34.333 -101.667 -37 -155z" />
    <glyph glyph-name="eight" unicode="8" horiz-adv-x="260" 
d="M122 -5l-1.00488 -0.00195312h-1h-1c-40 0 -71 9 -93 27c-21.333 18 -32 44.667 -32 80c0 18.667 3.33301 34.334 10 47.001c7.33301 13.333 20 25 38 35l3 1c-0.666992 0 -1.5 0.166992 -2.5 0.5s-1.5 0.833008 -1.5 1.5c-11.333 6 -20.666 14.667 -27.999 26
c-7.33301 12 -11 26.667 -11 44s5 33.333 15 48c2.66699 6 6.33398 10.667 11.001 14c0.666992 0.666992 1.5 1.33398 2.5 2.00098s1.83301 1.33398 2.5 2.00098c9.33301 7.33301 20.833 13.5 34.5 18.5s29.834 7.5 48.501 7.5l4 1v0v0h1v0l3 -1
c18.667 0 34.834 -2.5 48.501 -7.5s25.167 -11.167 34.5 -18.5c2.66699 -1.33301 4.33398 -2.66602 5.00098 -3.99902c3.33301 -2.66699 7.33301 -7.33398 12 -14.001c10 -14.667 14.833 -30.667 14.5 -48s-4.16602 -32 -11.499 -44c-6.66699 -11.333 -16 -20 -28 -26
c-0.666992 -0.666992 -1.33398 -1.16699 -2.00098 -1.5l-1 -0.5l3 -1c17.333 -10 30 -21.667 38 -35c7.33301 -14 11 -29.667 11 -47c0 -34.667 -11.333 -61.334 -34 -80.001c-22 -18 -52.667 -27 -92 -27zM128.995 51.998h1.00195v0v0h1c10.667 0.666992 20.667 5 30 13
c10 10 15 23 15 39c0 10.667 -2.66699 20 -8 28c-10 16.667 -25.667 25 -47 25h-1v0v0c-22.667 0 -38.667 -8.33301 -48 -25c-4.66699 -6.66699 -7 -16 -7 -28c0 -16 5 -29 15 -39c7.33301 -8 17.333 -12.333 30 -13v0h1v0h1c1.33301 -0.666992 3.66602 -1 6.99902 -1v0h1h1
h1c3.33301 0 5.66602 0.333008 6.99902 1zM119.997 293.998c-16 0 -28.333 -4.16699 -37 -12.5s-13 -18.166 -13 -29.499c0 -12 3.83301 -21.833 11.5 -29.5s20.5 -11.5 38.5 -11.5c17.333 0 30 3.83301 38 11.5s12 17.5 12 29.5c0 11.333 -4.33301 21.166 -13 29.499
s-21 12.5 -37 12.5z" />
    <glyph glyph-name="nine" unicode="9" horiz-adv-x="261" 
d="M216 306c22 -29.333 33.001 -71.6689 33.001 -127.002c0 -59.333 -12 -105 -36 -137c-24 -31.333 -58.667 -47 -104 -47c-32 0 -57 7.66699 -75 23c-6 4.66699 -12 10.667 -18 18s-9 16 -9 26c0 13.333 8 20 24 20h43c1.33301 -11.333 5.66602 -19.666 12.999 -24.999
c8 -5.33301 18.333 -8 31 -8c16.667 0 30.334 7.66699 41.001 23c9.33301 16 14.666 38.667 15.999 68c-7.33301 -7.33301 -17 -13.666 -29 -18.999c-9.33301 -3.33301 -22 -5 -38 -5c-35.333 0 -63.333 10 -84 30c-20 20 -30 47.333 -30 82c0 55.333 23 92.333 69 111
c16.667 7.33301 34.667 11 54 11c43.333 0 76.333 -14.667 99 -44zM79.001 186.997c9.33301 -10.667 23.002 -15.999 41.002 -15.999c16.667 0 29.667 5.33301 39 16c6 6 10.167 15 12.5 27s2.16602 23.833 -0.500977 35.5s-8.33398 22 -17.001 31s-21 13.5 -37 13.5
c-10 0 -18.167 -1.83301 -24.5 -5.5s-10.833 -7.5 -13.5 -11.5c-10 -12 -15 -27.333 -15 -46s5 -33.334 15 -44.001z" />
    <glyph glyph-name="colon" unicode=":" horiz-adv-x="57" 
d="M21 89h34v-55h-55v35c0 13.333 7 20 21 20zM21 232h34v-55h-55v34c0 14 7 21 21 21z" />
    <glyph glyph-name="semicolon" unicode=";" horiz-adv-x="58" 
d="M22 55l34 0.00195312v-53c0 -16.667 -4.66699 -31.334 -14 -44.001c-10.667 -10.667 -24.667 -17.667 -42 -21v11c0 5.33301 4.66699 10.666 14 15.999c3.33301 2 6.33301 4.66699 9 8c4.66699 7.33301 7 14.333 7 21c1.33301 4.66699 -1.66699 7 -9 7v0h-20v34
c0 14 7 21 21 21zM22 197.002h34v-55h-55v35c0 13.333 7 20 21 20z" />
    <glyph glyph-name="less" unicode="&#x3c;" horiz-adv-x="219" 
d="M209 32l-196 106.001c-12.667 7.33301 -19 18.666 -19 33.999c0 16 6.66699 27.333 20 34l195 107v-39c0 -2.66699 -1 -6.16699 -3 -10.5s-5 -7.5 -9 -9.5l-139 -76c-5.33301 -4 -5.33301 -8 0 -12l151 -81v-53z" />
    <glyph glyph-name="equal" unicode="=" horiz-adv-x="237" 
d="M0 187v24c-0 14.667 7.33301 22 22 22h204v-46h-226zM0 109v24c-0 14.667 7.33301 22 22 22h204v-46h-226z" />
    <glyph glyph-name="greater" unicode="&#x3e;" horiz-adv-x="226" 
d="M0 313l195 -107.001c14 -7.33301 21 -18.666 21 -33.999s-7 -26.333 -21 -33l-195 -107v39c-0 2 0.833008 5.33301 2.5 10s4.5 8 8.5 10l140 75c5.33301 4 5.33301 8 0 12l-151 82v53z" />
    <glyph glyph-name="question" unicode="?" horiz-adv-x="234" 
d="M75 100c0 22 1.83398 39.1641 5.50098 51.4971s15.5 26.5 35.5 42.5c10 8 18.5 16 25.5 24s10.5 18 10.5 30c0 26.667 -11.167 41.667 -33.5 45s-38.5 -1 -48.5 -13c-8.66699 -9.33301 -13.334 -23.333 -14.001 -42c-18 0 -32.833 0.333008 -44.5 1s-17.5 10 -17.5 28
c0 10 2.5 20.167 7.5 30.5s11.5 19.166 19.5 26.499c14 12.667 32.333 21.334 55 26.001s45 4.33398 67 -0.999023s40.833 -16 56.5 -32s23.5 -38 23.5 -66c0 -22 -4.5 -39 -13.5 -51s-18.833 -22.167 -29.5 -30.5s-20.5 -16.666 -29.5 -24.999
s-13.167 -20.166 -12.5 -35.499v-5v-4h-63zM98.001 68.9971h44v-69h-69v43c0 17.333 8.33301 26 25 26z" />
    <glyph glyph-name="at" unicode="@" horiz-adv-x="454" 
d="M258 170c-2.66699 12.667 -7.33203 22.333 -13.999 29s-15.667 10 -27 10c-18.667 0 -34.334 -9.66699 -47.001 -29c-13.333 -20 -20 -43.333 -20 -70c0 -13.333 3.33301 -24.333 10 -33c6 -7.33301 15 -11 27 -11c12.667 0 24.667 5 36 15c10 8 17.333 20.667 22 38z
M246.002 69.999c-8 -12.667 -18 -22.6631 -30 -29.9961c-11.333 -6 -24.666 -9 -39.999 -9c-24 0 -42.667 6.66699 -56 20c-13.333 14 -20 34 -20 60c0 37.333 11 68.666 33 93.999c21.333 25.333 48.333 38 81 38c12.667 0 23.334 -2.33301 32.001 -7
c9.33301 -6 17 -13.667 23 -23l13 23c21.333 0 32.166 -5.33301 32.499 -16s0.166016 -17.334 -0.500977 -20.001l-25 -105c-0.666992 -1.33301 -1 -3 -1 -5c-0.666992 -1.33301 -1 -2.66602 -1 -3.99902c0 -6 2 -10.333 6 -13c3.33301 -2.66699 9 -4 17 -4
c4.66699 0 11 1.66699 19 5c8 4 14.333 8.33301 19 13c13.333 13.333 23.333 28 30 44c7.33301 17.333 11 35.666 11 54.999c0 37.333 -14.667 68.333 -44 93c-29.333 24 -66.666 36 -111.999 36c-24.667 0 -45.334 -2.66699 -62.001 -8
c-18.667 -5.33301 -36 -13.333 -52 -24c-26 -16.667 -46.333 -39 -61 -67c-14.667 -26 -22 -55.333 -22 -88c0 -48 16.333 -86.333 49 -115c32 -28 75.333 -42 130 -42c24 0 48.667 3.66699 74 11c12 4 23.667 8.5 35 13.5s22.333 11.5 33 19.5
c2.66699 -4.66699 2.83398 -13 0.500977 -25s-9.5 -21 -21.5 -27s-24 -11 -36 -15c-25.333 -9.33301 -53.333 -14 -84 -14c-29.333 0 -57 3.66699 -83 11c-26 8 -48.667 19.333 -68 34c-24.667 19.333 -42.667 41 -54 65c-11.333 24.667 -17 52.667 -17 84
c0 24.667 3.66699 49.667 11 75c8 24.667 20.333 46 37 64c21.333 27.333 49 49 83 65c34 14.667 70.333 22 109 22c24.667 0 49.667 -3.66699 75 -11c22.667 -7.33301 42.667 -17.333 60 -30c20.667 -16.667 36.667 -35.667 48 -57c10.667 -22.667 16 -46.334 16 -71.001
c0 -25.333 -5.33301 -49 -16 -71c-10.667 -22.667 -25.334 -41.334 -44.001 -56.001c-11.333 -9.33301 -23.333 -16.333 -36 -21c-15.333 -4.66699 -29 -7 -41 -7c-16 0 -28.333 3.33301 -37 10c-8.66699 7.33301 -13 17.333 -13 30z" />
    <glyph glyph-name="A" unicode="A" 
d="M148 344h56l125 -344h-75l-23 71h-134l-22 -71h-75l114 321c6 15.333 17.333 23 34 23zM164 275l-48 -146h96z" />
    <glyph glyph-name="B" unicode="B" horiz-adv-x="296" 
d="M0 0v308c0 10 3.5 18.5 10.5 25.5s15.5 10.5 25.5 10.5h126c35.333 0 62.333 -7.33301 81 -22c18.667 -16 28 -37.667 28 -65c0 -17.333 -3.66699 -32 -11 -44c-7.33301 -11.333 -17.666 -20.333 -30.999 -27c17.333 -7.33301 30.666 -17.666 39.999 -30.999
c8.66699 -12.667 13 -29.334 13 -50.001c0 -33.333 -10.667 -59.333 -32 -78c-22 -18 -53 -27 -93 -27h-157zM68 211h81c17.333 0 30 3 38 9s12 15.333 12 28s-4 22 -12 28c-6.66699 5.33301 -19.667 8 -39 8h-80v-73zM68 62h84.001c18.667 0 33 3.66699 43 11
c9.33301 6.66699 14 18 14 34s-4.66699 27.667 -14 35c-8.66699 6.66699 -23.334 10 -44.001 10h-83v-90z" />
    <glyph glyph-name="C" unicode="C" horiz-adv-x="322" 
d="M307 119c-3.33301 -40 -18.3311 -71.334 -44.998 -94.001c-27.333 -22 -63.333 -33 -108 -33c-52 0 -91.667 15.667 -119 47c-27.333 30 -41 74.333 -41 133c0 60 14 105 42 135c28.667 31.333 70 47 124 47c44 0 79 -11 105 -33c24.667 -21.333 38.667 -51.333 42 -90
h-43c-16 0 -27.333 7 -34 21v0c-4.66699 8.66699 -10.334 16.334 -17.001 23.001c-13.333 10 -31 15 -53 15c-30.667 0 -54.334 -10 -71.001 -30c-16 -20 -24 -49.333 -24 -88c0 -37.333 8 -66 24 -86c15.333 -20.667 38.333 -31 69 -31c21.333 0 39 5.33301 53 16
c12.667 10 21.667 26 27 48h69z" />
    <glyph glyph-name="D" unicode="D" horiz-adv-x="306" 
d="M0 0l0.000976562 307.999c0 10 3.5 18.5 10.5 25.5s15.5 10.5 25.5 10.5h99c52.667 0 92 -14 118 -42c26 -29.333 39 -72.666 39 -129.999c0 -30.667 -4.66699 -58.334 -14 -83.001c-10.667 -25.333 -24.667 -44.666 -42 -57.999
c-14.667 -11.333 -30.334 -19.333 -47.001 -24c-16 -4.66699 -40.333 -7 -73 -7h-116zM69.001 61.999h56.999c32.667 0 56.667 8.66699 72 26c14.667 16 22 44 22 84c0 38.667 -7 67 -21 85c-13.333 18 -34.666 27 -63.999 27h-66v-222z" />
    <glyph glyph-name="E" unicode="E" horiz-adv-x="262" 
d="M0 0v308c0 10 3.5 18.5 10.5 25.5s15.5 10.5 25.5 10.5h214v-59h-180v-74h134v-23c0 -10 -3.5 -18.5 -10.5 -25.5s-15.5 -10.5 -25.5 -10.5h-98v-88h180v-64h-250z" />
    <glyph glyph-name="F" unicode="F" horiz-adv-x="262" 
d="M0 0v308c0 10 3.5 18.5 10.5 25.5s15.5 10.5 25.5 10.5h214v-59h-180v-74h134v-23c0 -10 -3.5 -18.5 -10.5 -25.5s-15.5 -10.5 -25.5 -10.5h-98v-152h-70z" />
    <glyph glyph-name="G" unicode="G" horiz-adv-x="327" 
d="M255 41c-12 -17.333 -26.3311 -30 -42.998 -38c-17.333 -7.33301 -36.333 -11 -57 -11c-49.333 0 -88.333 16.333 -117 49c-29.333 32 -44 76 -44 132c0 55.333 14.333 99 43 131c30 33.333 69.667 50 119 50c42.667 0 78 -10.333 106 -31
c27.333 -22 43.666 -50.667 48.999 -86h-48c-14 0 -24.333 6.33301 -31 19c-4.66699 8 -11.334 15.333 -20.001 22c-13.333 9.33301 -31 14 -53 14c-28.667 0 -51.334 -10.333 -68.001 -31c-16.667 -22 -25 -51.333 -25 -88c0 -37.333 8.66699 -66.666 26 -87.999
c16.667 -20.667 40.334 -31 71.001 -31c22.667 0 41.334 6.33301 56.001 19c14.667 13.333 24 31.666 28 54.999h-42c-10 0 -18.5 3.5 -25.5 10.5s-10.5 15.5 -10.5 25.5v23h143v-187h-19c-18.667 -0 -30.334 9.33301 -35.001 28z" />
    <glyph glyph-name="H" unicode="H" horiz-adv-x="299" 
d="M0 0v308c0 10 3.5 18.5 10.5 25.5s15.5 10.5 25.5 10.5h35v-128h142v128h72v-344h-72v153h-142v-153h-71z" />
    <glyph glyph-name="I" unicode="I" horiz-adv-x="74" 
d="M0 0v308c0 10 3.5 18.5 10.5 25.5s15.5 10.5 25.5 10.5h35v-344h-71z" />
    <glyph glyph-name="J" unicode="J" horiz-adv-x="231" 
d="M0 129l68.998 0.00195312v-42c0 -12 3.33301 -21.333 10 -28c6.66699 -6 17 -9 31 -9s24.333 3.66699 31 11c5.33301 6.66699 8 21 8 43v204c0 10 3.66699 18.5 11 25.5s16 10.5 26 10.5h34v-243c0 -22 -1 -38 -3 -48c-3.33301 -11.333 -7.66602 -20.333 -12.999 -27
c-9.33301 -11.333 -21.666 -20 -36.999 -26c-17.333 -5.33301 -36 -8 -56 -8c-21.333 0 -38.666 2.66699 -51.999 8c-14 3.33301 -26.333 10.666 -37 21.999c-8.66699 9.33301 -14.334 18.666 -17.001 27.999c-3.33301 12 -5 29.333 -5 52v27z" />
    <glyph glyph-name="K" unicode="K" horiz-adv-x="321" 
d="M0 0v308c0 10 3.5 18.5 10.5 25.5s15.5 10.5 25.5 10.5h35v-141l134 141h89l-138 -139l150 -205h-86l-87 122c-15.333 20 -29.5 27.833 -42.5 23.5s-19.5 -12.5 -19.5 -24.5v-121h-71z" />
    <glyph glyph-name="L" unicode="L" horiz-adv-x="250" 
d="M0 0v308c0 10 3.5 18.5 10.5 25.5s15.5 10.5 25.5 10.5h35v-280h168v-64h-239z" />
    <glyph glyph-name="M" unicode="M" horiz-adv-x="363" 
d="M0 0v308c0 10 3.5 18.5 10.5 25.5s15.5 10.833 25.5 11.5h69l68 -263l68 263h105v-345h-66v278l-70 -278h-73l-71 278v-278h-66z" />
    <glyph glyph-name="N" unicode="N" horiz-adv-x="298" 
d="M0 0v308c0 10 3.5 18.5 10.5 25.5s15.5 10.833 25.5 11.5h38l140 -237v237h70v-345h-73l-141 237v-237h-70z" />
    <glyph glyph-name="O" unicode="O" 
d="M65 172c0 -38.667 8.33301 -67.998 25 -87.998c16.667 -20.667 40.334 -31 71.001 -31c30 0 53.667 10.333 71 31c17.333 21.333 26 50.666 26 87.999s-8.66699 67 -26 89c-17.333 20.667 -41 31 -71 31c-30.667 0 -54.334 -10.333 -71.001 -31s-25 -50.334 -25 -89.001z
M-6 172.002c0 56 14.667 100.332 44 132.999c31.333 32.667 72.333 49 123 49c50 0 91 -16.333 123 -49c30 -33.333 45 -77.666 45 -132.999s-15 -99.333 -45 -132c-30.667 -32 -71.667 -48 -123 -48c-52 0 -93 16 -123 48c-29.333 32 -44 76 -44 132z" />
    <glyph glyph-name="P" unicode="P" horiz-adv-x="276" 
d="M71 123v-122.999h-71v308c0 10 3.5 18.5 10.5 25.5s15.5 10.5 25.5 10.5h117c36.667 0 64 -9.33301 82 -28c18.667 -18.667 28 -46.334 28 -83.001c0 -34.667 -9 -62 -27 -82c-18 -18.667 -44 -28 -78 -28h-87zM71 185.001l68.999 0.000976562c18.667 0 32 4 40 12
c8.66699 7.33301 13 20 13 38c0 15.333 -4 27.666 -12 36.999c-9.33301 8 -21.666 12 -36.999 12h-73v-99z" />
    <glyph glyph-name="Q" unicode="Q" horiz-adv-x="346" 
d="M252 15c-12 -8.66699 -25.333 -14.333 -40 -17c-16 -4 -33 -6 -51 -6c-52 0 -93 16 -123 48c-29.333 32 -44 76 -44 132s14.667 100.333 44 133c31.333 32.667 72.333 49 123 49c50 0 91 -16.333 123 -49c30 -33.333 45 -77.666 45 -132.999c0 -24 -3 -46 -9 -66
c-6 -20.667 -15.333 -38.334 -28 -53.001l38 -36l-19 -19c-6.66699 -6.66699 -13.667 -9.5 -21 -8.5s-13.333 3.5 -18 7.5zM202 62.001l-35.999 35.001l12 13c5.33301 6 12.5 9.66699 21.5 11s16.5 0 22.5 -4l20 -16c4.66699 8.66699 8.66699 19.334 12 32.001
c0.666992 6 1.5 12.167 2.5 18.5s1.5 13.166 1.5 20.499c0 37.333 -8.66699 67 -26 89c-17.333 20.667 -41 31 -71 31c-30.667 0 -54.334 -10.333 -71.001 -31s-25 -50.334 -25 -89.001s8.33301 -68 25 -88c16.667 -20.667 40.334 -31 71.001 -31c10 0 17.333 0.666992 22 2
c7.33301 2 13.666 4.33301 18.999 7z" />
    <glyph glyph-name="R" unicode="R" horiz-adv-x="298" 
d="M0 0v308c0 10 3.5 18.5 10.5 25.5s15.5 10.5 25.5 10.5h131c37.333 0 65 -8 83 -24c18.667 -16.667 28 -41 28 -73c0 -21.333 -4.66699 -39 -14 -53c-8 -13.333 -20.667 -23 -38 -29c15.333 -5.33301 26 -13.333 32 -24c6 -10 9.66699 -27 11 -51l2 -41v-13
c0 -4.66699 0.333008 -9 1 -13c2 -12 6 -19.667 12 -23h-78c-3.33301 6.66699 -5.33301 13.667 -6 21c-1.33301 10.667 -2 18 -2 22l-1 37c-1.33301 20 -5.33301 34.333 -12 43c-7.33301 7.33301 -20.333 11 -39 11h-75v-134h-71zM71 194l83 0.00195312
c18 0 31.333 3.66699 40 11s13 18.666 13 33.999s-4.33301 26.666 -13 33.999c-8 8 -20 12 -36 12h-87v-91z" />
    <glyph glyph-name="S" unicode="S" horiz-adv-x="294" 
d="M0 107l70 -0.00195312c2.66699 -20 10.334 -34 23.001 -42c13.333 -9.33301 31.666 -14 54.999 -14c20.667 0 36.334 3.66699 47.001 11s16 18 16 32c0 21.333 -30 38.666 -90 51.999l-2 1l-8 2c-34 7.33301 -56.667 15 -68 23c-13.333 7.33301 -22.666 18 -27.999 32
c-6.66699 12 -10 27.333 -10 46c0 32.667 11.333 58.334 34 77.001c22.667 18 55.667 27 99 27c40.667 0 72 -9.33301 94 -28c22.667 -20.667 34.667 -47.667 36 -81h-40c-15.333 0 -26.333 7 -33 21v0c-3.33301 6.66699 -8 12.334 -14 17.001
c-12 8.66699 -28.333 13 -49 13c-20 0 -34.333 -3.66699 -43 -11c-10 -7.33301 -15 -17.666 -15 -30.999c0 -18 19.333 -31.333 58 -40c11.333 -3.33301 19.666 -5.33301 24.999 -6c12 -4 22.5 -7.16699 31.5 -9.5l21.5 -5.5l28 -12c13.333 -8 23.666 -18.333 30.999 -31
c7.33301 -14 11 -29.333 11 -46c0 -36 -12 -64 -36 -84c-24 -18.667 -58 -28 -102 -28c-45.333 0 -79.333 9.66699 -102 29c-24.667 19.333 -38 48 -40 86z" />
    <glyph glyph-name="T" unicode="T" horiz-adv-x="287" 
d="M102 0v283h-102v25c0 10 3.5 18.5 10.5 25.5s15.5 10.5 25.5 10.5h238v-61h-101v-283h-71z" />
    <glyph glyph-name="U" unicode="U" horiz-adv-x="289" 
d="M72 345v-214.999c0 -26.667 5 -46.334 15 -59.001c10.667 -12 27.667 -18 51 -18c22.667 0 39.667 6 51 18c10.667 12 16 31.667 16 59v215h71v-223c0 -42.667 -12 -75 -36 -97c-22 -22 -56 -33 -102 -33s-80 11 -102 33c-24 22 -36 54.333 -36 97v185
c0 10 3.5 18.833 10.5 26.5s15.5 11.5 25.5 11.5h36z" />
    <glyph glyph-name="V" unicode="V" horiz-adv-x="319" 
d="M119 0l-119 344h79l73 -257l67 231v0c4 17.333 15.333 26 34 26h51l-117 -344h-68z" />
    <glyph glyph-name="W" unicode="W" horiz-adv-x="460" 
d="M99 0l-99 344h73l59 -243l50 243h76l49 -243l53 217c4 17.333 15.667 26 35 26h44l-98 -344h-68l-53 264l-54 -264h-67z" />
    <glyph glyph-name="X" unicode="X" horiz-adv-x="319" 
d="M0 0l108 176l-108 168h82l70 -120l60 103v0v0c6.66699 11.333 17 17 31 17h61l-108 -168l108 -176h-81l-71 119l-70 -119h-82z" />
    <glyph glyph-name="Y" unicode="Y" horiz-adv-x="324" 
d="M196 0h-71v128l-125 216h87l73 -148l59 128c6.66699 13.333 17.667 20 33 20h57l-113 -216v-128z" />
    <glyph glyph-name="Z" unicode="Z" horiz-adv-x="286" 
d="M0 0v60l187 222h-147v0c-10 0 -18.5 3.5 -25.5 10.5s-10.5 15.5 -10.5 25.5v0v26h269v-60l-187 -222h183v-62h-269z" />
    <glyph glyph-name="bracketleft" unicode="[" horiz-adv-x="128" 
d="M0 -57v458.999h122v-51h-57v-356h57v-27c0 -15.333 -8.33301 -23.666 -25 -24.999h-97z" />
    <glyph glyph-name="backslash" unicode="\" horiz-adv-x="147" 
d="M101 0l-101 345h25c9.33301 0 15.333 -4.66699 18 -14l97 -331h-39z" />
    <glyph glyph-name="bracketright" unicode="]" horiz-adv-x="128" 
d="M122 399v-459h-122v51h57v357h-57v26c0 6 2.16699 11.667 6.5 17s10.5 8 18.5 8h97z" />
    <glyph glyph-name="asciicircum" unicode="^" horiz-adv-x="147" 
d="M108 333l31.999 -38h-41l-30 34l-21 -23c-4 -4 -7.5 -6.83301 -10.5 -8.5s-7.5 -2.5 -13.5 -2.5h-24l32 38c10.667 14 23.334 21 38.001 21c14 0 26.667 -7 38 -21z" />
    <glyph glyph-name="underscore" unicode="_" horiz-adv-x="273" 
d="M0 -62v14c0 8 2.66699 14.833 8 20.5s12 8.5 20 8.5h232v-43h-260z" />
    <glyph glyph-name="grave" unicode="`" horiz-adv-x="98" 
d="M0 354h45.001c6 0 10.667 -1.5 14 -4.5s5.66602 -5.5 6.99902 -7.5l28 -51h-33z" />
    <glyph glyph-name="a" unicode="a" horiz-adv-x="229" 
d="M154 134c-9.33301 -4.66699 -22.334 -9.00293 -39.001 -13.0029l-23 -5c-12 -3.33301 -20.667 -7.66602 -26 -12.999c-4.66699 -7.33301 -7 -14.666 -7 -21.999c0 -10 3 -18 9 -24c6 -5.33301 14.667 -8 26 -8c18.667 0 33.334 5.33301 44.001 16s16 25.334 16 44.001v25
zM169.999 10.9971c-14 -7.33301 -28.834 -11.833 -44.501 -13.5s-29.5 -2.5 -41.5 -2.5c-24 0 -45 6.5 -63 19.5s-27 34.5 -27 64.5c0 28 8.16699 48 24.5 60s37.166 20 62.499 24c3.33301 0 7.33301 0.5 12 1.5s10 1.83301 16 2.5c29.333 4 44 12.667 44 26
c0 10 -5.16699 16.5 -15.5 19.5s-19.833 4.5 -28.5 4.5c-9.33301 0 -17.666 -1.33301 -24.999 -4s-12.666 -7.66699 -15.999 -15h-67c2.66699 20.667 12 37.667 28 51c18 15.333 43.667 23 77 23c37.333 0 65.333 -6.33301 84 -19c19.333 -13.333 29 -32 29 -56v-91
c0 -26.667 -4.83301 -47.5 -14.5 -62.5s-21.167 -25.833 -34.5 -32.5z" />
    <glyph glyph-name="b" unicode="b" horiz-adv-x="263" 
d="M68 311v-79.999c7.33301 12.667 18 23 32 31c12 6.66699 26.667 10 44 10c31.333 0 57 -13 77 -39s30 -59.667 30 -101s-10 -75 -30 -101c-10 -12.667 -23.5 -21.834 -40.5 -27.501s-33.833 -8.5 -50.5 -8.5c-32 0 -61.667 8.33301 -89 25s-41 48.667 -41 96v229h34
c9.33301 0 17.333 -3.33301 24 -10s10 -14.667 10 -24zM182 135.001c0 24 -5 42.667 -15 56c-10 14 -23.667 21 -41 21c-18.667 0 -33 -6.66699 -43 -20c-10 -14 -15 -33 -15 -57c0 -28 4.66699 -48.333 14 -61c10 -14 24 -21 42 -21c18.667 0 33 7 43 21s15 34.333 15 61z
" />
    <glyph glyph-name="c" unicode="c" horiz-adv-x="246" 
d="M185 82h49.999c-7.33301 -28 -21.333 -49.333 -42 -64c-20.667 -15.333 -46.667 -23 -78 -23c-38 0 -67.667 12.333 -89 37c-21.333 24 -32 58.333 -32 103c0 42.667 10.333 76 31 100c21.333 24.667 51 37 89 37c40 0 71 -12 93 -36c12 -14.667 20.667 -31.667 26 -51
h-70c-3.33301 6.66699 -6.66602 11.667 -9.99902 15c-8.66699 9.33301 -21 14 -37 14c-14.667 0 -26.667 -4.66699 -36 -14c-12 -13.333 -18 -35.333 -18 -66s6 -52.334 18 -65.001c8.66699 -10.667 21.667 -16 39 -16c11.333 0 21 2.33301 29 7
c2 0.666992 3.83301 1.83398 5.5 3.50098l5.5 5.5c1.33301 2 4 4.66699 8 8s10 5 18 5z" />
    <glyph glyph-name="d" unicode="d" horiz-adv-x="256" 
d="M176 345l33.999 -0.00195312c9.33301 0 17.333 -3.5 24 -10.5s10 -14.833 10 -23.5v-195c0 -47.333 -13.667 -79.333 -41 -96s-57 -25 -89 -25c-17.333 0 -34.333 2.83301 -51 8.5s-30 14.834 -40 27.501c-19.333 24.667 -29 58.334 -29 101.001
c0 42 9.66699 75.667 29 101c20 26 45.667 39 77 39c16.667 0 31.334 -3.33301 44.001 -10c13.333 -8 24 -18.333 32 -31v114zM61.999 134.998c0 -26.667 5 -47 15 -61s24.333 -21 43 -21c18 0 32 7 42 21c9.33301 14 14 34.333 14 61c0 24 -5 43 -15 57
c-10.667 13.333 -25 20 -43 20c-17.333 0 -31 -7 -41 -21c-10 -13.333 -15 -32 -15 -56z" />
    <glyph glyph-name="e" unicode="e" horiz-adv-x="250" 
d="M185 82l50 -0.00195312c-7.33301 -28 -21.333 -49.333 -42 -64c-20.667 -15.333 -46.667 -23 -78 -23c-38 0 -67.667 12.333 -89 37c-21.333 24 -32 58.333 -32 103c0 42.667 10.333 76 31 100c21.333 24.667 51 37 89 37c40 0 71 -12 93 -36
c21.333 -24.667 32 -59 32 -103v-7v-4c0 -3.33301 -0.333008 -5.66602 -1 -6.99902h-173c0.666992 -20.667 5.66699 -36 15 -46c8.66699 -10.667 21.667 -16 39 -16c11.333 0 21 2.33301 29 7c2 0.666992 3.83301 1.83398 5.5 3.50098l5.5 5.5
c0.666992 2 3.16699 4.66699 7.5 8s10.5 5 18.5 5zM65 159.998l102 -0.000976562c-1.33301 18 -6 31.333 -14 40c-8.66699 9.33301 -21 14 -37 14c-14.667 0 -26.667 -4.66699 -36 -14s-14.333 -22.666 -15 -39.999z" />
    <glyph glyph-name="f" unicode="f" horiz-adv-x="116" 
d="M0 0l0.000976562 274c0 24 6.33301 42 19 54c12 11.333 31.667 17 59 17c6.66699 0 12 -0.333008 16 -1c7.33301 0 13 -0.333008 17 -1v-55h-18c-9.33301 0 -16 -1.33301 -20 -4c-3.33301 -2.66699 -5 -8 -5 -16v-18h43v-15c0 -10 -3.33301 -18.167 -10 -24.5
s-14.334 -9.5 -23.001 -9.5h-10v-201h-68z" />
    <glyph glyph-name="g" unicode="g" horiz-adv-x="256" 
d="M176 16v17.001c-12 -18.667 -28.167 -30.334 -48.5 -35.001s-40.5 -3 -60.5 5s-37.167 22.833 -51.5 44.5s-21.5 50.167 -21.5 85.5c0 41.333 9.5 74.833 28.5 100.5s49.5 38.5 91.5 38.5c32 0 61.667 -8.66699 89 -26s41 -49.333 41 -96v-141
c0 -46.667 -13.667 -78.5 -41 -95.5s-57 -25.5 -89 -25.5c-61.333 0 -99.333 28.667 -114 86h73c5.33301 -9.33301 13.5 -16.5 24.5 -21.5s22 -6.33301 33 -4s21 8.83301 30 19.5s14.167 26.667 15.5 48zM62 131.001c0 -46 13.332 -71.5 39.999 -76.5
s46.334 1.16699 59.001 18.5c6 7.33301 10.333 18.833 13 34.5s2.83398 31.167 0.500977 46.5s-7.83301 29 -16.5 41s-21.334 18 -38.001 18c-22.667 0 -38 -8.33301 -46 -25s-12 -35.667 -12 -57z" />
    <glyph glyph-name="h" unicode="h" horiz-adv-x="260" 
d="M167 191c-10 14 -23.668 20.999 -41.001 20.999c-18.667 0 -33 -6.66699 -43 -20s-15 -31.666 -15 -54.999v-137h-68v344h34c9.33301 0 17.333 -3.33301 24 -10s10 -14.667 10 -24v-79c12 20 29 32.667 51 38s43 4 63 -4c18.667 -8 34.334 -20.667 47.001 -38
s19 -41.333 19 -72v-155h-67v138c0 10 -0.833008 19.167 -2.5 27.5s-5.5 16.833 -11.5 25.5z" />
    <glyph glyph-name="i" unicode="i" horiz-adv-x="79" 
d="M6 266h36c9.33301 0 17.333 -3.33301 24 -10s10 -14.667 10 -24v-232h-70v266zM6 344h36c9.33301 0 17.333 -3.33301 24 -10s10 -14.667 10 -24v-21h-70v55z" />
    <glyph glyph-name="j" unicode="j" horiz-adv-x="91" 
d="M-23 -111v58.001h13c6 0 10 1.66699 12 5c2.66699 2 4 6.33301 4 13v35v0v201v65h36c9.33301 0 17.333 -3.33301 24 -10s10 -14.667 10 -24v-232v0v-46c0 -22.667 -6.66699 -39.334 -20 -50.001c-13.333 -10 -35.333 -15 -66 -15h-13zM6 344.001h36
c9.33301 0 17.333 -3.33301 24 -10s10 -14.667 10 -24v-21h-70v55z" />
    <glyph glyph-name="k" unicode="k" horiz-adv-x="252" 
d="M70 266v-97.999l85 98h84l-95 -102l96 -164h-84l-49 90c-10 18 -18.667 25.667 -26 23s-11 -6.66699 -11 -12v-37v-64h-70v344h36c9.33301 0 17.333 -3.33301 24 -10s10 -14.334 10 -23.001v-45z" />
    <glyph glyph-name="l" unicode="l" horiz-adv-x="85" 
d="M3 344l36 -0.000976562c9.33301 0 17.333 -3.16699 24 -9.5s10 -14.166 10 -23.499v-311h-70v344z" />
    <glyph glyph-name="m" unicode="m" horiz-adv-x="414" 
d="M232 0h-69.002v156v14c0 16 -4.83301 27.667 -14.5 35s-20.5 11 -32.5 11s-22.667 -3.66699 -32 -11s-14 -19 -14 -35v-170h-70v156c0 45.333 11.833 75.666 35.5 90.999s49.834 23.666 78.501 24.999c15.333 0 30.333 -1.66699 45 -5s28 -10 40 -20
c10 8.66699 21.833 14.834 35.5 18.501s27.834 5.83398 42.501 6.50098c29.333 0 56.333 -7.66699 81 -23s37 -46.333 37 -93v-156h-35c-10 0 -18.167 3.16699 -24.5 9.5s-9.5 14.5 -9.5 24.5v0v136c0 16 -4.83301 27.667 -14.5 35s-20.5 11 -32.5 11
s-22.833 -3.66699 -32.5 -11s-14.5 -19 -14.5 -35v-14v-156z" />
    <glyph glyph-name="n" unicode="n" horiz-adv-x="243" 
d="M232 0l-35.001 0.00195312c-10 0 -18.167 3.16699 -24.5 9.5s-9.5 14.5 -9.5 24.5v0v136c0 16 -4.83301 27.667 -14.5 35s-20.5 11 -32.5 11s-22.667 -3.66699 -32 -11s-14 -19 -14 -35v-170h-70v156c0 45.333 11.833 75.666 35.5 90.999s49.834 23.666 78.501 24.999
c29.333 0 56.333 -7.66699 81 -23s37 -46.333 37 -93v-156z" />
    <glyph glyph-name="o" unicode="o" horiz-adv-x="250" 
d="M33 24c-14 12 -24 28.166 -30 48.499s-9 41.5 -9 63.5c0 18 2.5 36 7.5 54s12.833 33 23.5 45c17.333 20 39.666 31.833 66.999 35.5s52 1.5 74 -6.5c25.333 -10 44 -27.333 56 -52c11.333 -22 17 -47.667 17 -77c0 -21.333 -2.33301 -39.666 -7 -54.999
s-10.667 -28.333 -18 -39c-16 -22 -36.333 -35.667 -61 -41c-22 -6 -44.167 -6.5 -66.5 -1.5s-40.166 13.5 -53.499 25.5zM81 199.999c-14 -15.333 -20.333 -38.167 -19 -68.5s7 -51.5 17 -63.5c4 -5.33301 11 -9.83301 21 -13.5s20.167 -4 30.5 -1s19.5 10.5 27.5 22.5
s12.333 31.333 13 58c0 24 -3.83301 42 -11.5 54s-16.5 19.667 -26.5 23s-20 3.5 -30 0.5s-17.333 -6.83301 -22 -11.5z" />
    <glyph glyph-name="p" unicode="p" horiz-adv-x="263" 
d="M68 -64c0 -9.33301 -3.33203 -17.333 -9.99902 -24s-14.667 -10 -24 -10h-34v249c0 46.667 13.667 78.5 41 95.5s57 25.5 89 25.5c16.667 0 33.5 -3.16699 50.5 -9.5s30.5 -15.5 40.5 -27.5c20 -26 30 -59.333 30 -100c0 -42 -10 -76 -30 -102
c-20 -25.333 -45.667 -38 -77 -38c-16.667 0 -31.334 3 -44.001 9c-13.333 6.66699 -24 17 -32 31v-99zM182.001 132c0 26 -5 46 -15 60s-24.333 21 -43 21c-18 0 -32 -7 -42 -21c-9.33301 -12.667 -14 -32.667 -14 -60c0 -25.333 5 -44.333 15 -57
c10 -14 24.333 -21 43 -21c17.333 0 31 7 41 21s15 33 15 57z" />
    <glyph glyph-name="q" unicode="q" horiz-adv-x="256" 
d="M176 -64l0.000976562 99.001c-8.66699 -14 -19.334 -24.333 -32.001 -31c-13.333 -6 -28 -9 -44 -9c-32 0 -57.667 12.667 -77 38c-19.333 24.667 -29 58.667 -29 102c0 41.333 9.66699 74.666 29 99.999c10 12 23.333 21.167 40 27.5s33.667 9.5 51 9.5
c32 0 61.667 -8.5 89 -25.5s41 -48.833 41 -95.5v-249h-34c-9.33301 0 -17.333 3.33301 -24 10s-10 14.667 -10 24zM62.001 132.001c0 -24 5 -43 15 -57s23.667 -21 41 -21c18.667 0 33 7 43 21c10 12.667 15 31.667 15 57c0 26 -4.66699 46 -14 60c-10 14 -24 21 -42 21
c-18.667 0 -33 -7 -43 -21s-15 -34 -15 -60z" />
    <glyph glyph-name="r" unicode="r" horiz-adv-x="157" 
d="M0 0l-0.000976562 128.999c0 26 3.83301 47.833 11.5 65.5s18.167 31.834 31.5 42.501c12.667 10 27.5 17.333 44.5 22s34.5 7 52.5 7h5h5v-71h-23c-19.333 0 -33.666 -4.66699 -42.999 -14s-14 -24 -14 -44v-137h-70z" />
    <glyph glyph-name="s" unicode="s" horiz-adv-x="241" 
d="M-6 88l68.001 0.00195312c0.666992 -13.333 5.66699 -23.333 15 -30c10 -6.66699 23.333 -10 40 -10c12 0 22.333 2.33301 31 7c8 4.66699 12 11 12 19c0 12 -14 21 -42 27c-12 2 -21 4 -27 6c-35.333 8.66699 -59 19 -71 31c-13.333 12 -20 28 -20 48
c0 25.333 9.66699 46.333 29 63c20 15.333 46 23 78 23c34.667 0 62.334 -7.66699 83.001 -23c19.333 -16.667 29.666 -38.334 30.999 -65.001h-43c-12.667 0 -22.334 5.66699 -29.001 17v0l-8 8c-8 6 -19 9 -33 9c-13.333 0 -23.333 -2 -30 -6c-6 -4 -9 -10 -9 -18
c0 -10.667 17.333 -19.667 52 -27c4 -1.33301 7.5 -2.33301 10.5 -3s5.83301 -1 8.5 -1c34 -8.66699 57.667 -18.667 71 -30c12.667 -12 19 -28 19 -48c0 -29.333 -10.667 -52 -32 -68c-20 -14.667 -50 -22 -90 -22c-38 0 -66.333 7.66699 -85 23
c-19.333 15.333 -29 37.666 -29 66.999v3z" />
    <glyph glyph-name="t" unicode="t" horiz-adv-x="124" 
d="M118 0c-22 -1.33301 -45.834 -1 -71.501 1s-38.5 18.333 -38.5 49v294h36c8.66699 0 16.334 -3.33301 23.001 -10s10 -14.667 10 -24v-45h41v-14c0 -10 -3.33301 -18.167 -10 -24.5s-14.667 -9.5 -24 -9.5h-7v-148c0 -11.333 6.66699 -17 20 -17h21v-52z" />
    <glyph glyph-name="u" unicode="u" horiz-adv-x="243" 
d="M232 266l0.000976562 -156c0 -47.333 -12.333 -78.333 -37 -93s-51.667 -22 -81 -22c-28.667 1.33301 -54.834 9.33301 -78.501 24s-35.5 45 -35.5 91v156h70v-170c0 -16 4.66699 -27.667 14 -35s20 -11 32 -11s22.833 3.66699 32.5 11s14.5 19 14.5 35v136v0
c0 9.33301 3.16699 17.333 9.5 24s14.5 10 24.5 10h35z" />
    <glyph glyph-name="v" unicode="v" horiz-adv-x="270" 
d="M164 0h-71l-93 266h74l53 -187l47 163c5.33301 16 16 24 32 24v0h52z" />
    <glyph glyph-name="w" unicode="w" horiz-adv-x="386" 
d="M295 0h-70l-41 190l-41 -190h-70l-73 266h68l42 -184l38 184h71l36 -184l37 160c4 16 14.667 24 32 24v0h44z" />
    <glyph glyph-name="x" unicode="x" horiz-adv-x="282" 
d="M257 0h-80l-47 84l-49 -84h-81l87 137l-82 129h77l46 -80l51 86v0c6 12 16 18 30 18v0h60l-100 -154z" />
    <glyph glyph-name="y" unicode="y" horiz-adv-x="270" 
d="M38 -94v55h19c13.333 0 23.833 3.16699 31.5 9.5s9.16699 16.5 4.5 30.5l-93 265h77l54 -188l47 164v0c4 16 14.667 24 32 24h48l-102 -303c-8 -22 -18 -37.667 -30 -47c-12 -8 -31.667 -12 -59 -12h-7h-7c-2 0.666992 -4.5 1.16699 -7.5 1.5s-5.5 0.5 -7.5 0.5z" />
    <glyph glyph-name="z" unicode="z" horiz-adv-x="242" 
d="M0 0v53.001l143 158h-101c-9.33301 0 -17.333 3.16699 -24 9.5s-10 14.166 -10 23.499v22h218v-57l-141 -151h146v-58h-231z" />
    <glyph glyph-name="braceleft" unicode="{" horiz-adv-x="183" 
d="M175 -36c-0.666992 -6 -3.49805 -11 -8.49805 -15s-10.167 -6.33301 -15.5 -7c-9.33301 0 -16.333 0.333008 -21 1l-14 2c-11.333 2 -20.333 5 -27 9c-9.33301 4.66699 -16 12 -20 22c-3.33301 11.333 -5 27 -5 47v61c0 20 -4.33301 35.667 -13 47
c-8.66699 9.33301 -22.334 14 -41.001 14c-0.666992 0 -1.5 -0.166992 -2.5 -0.5s-1.83301 -0.5 -2.5 -0.5h-3.5h-1.5v50h9c19.333 0 33.333 4.66699 42 14s13 25 13 47v60c0 22 1.66699 38 5 48c4 10 10.667 17.333 20 22c6.66699 4 15.667 7 27 9c10.667 2 24 3 40 3h3.5
h5.5c2 0 3.66699 -0.166992 5 -0.5s3 -0.5 5 -0.5v-50h-3.5h-2.5c-2 0.666992 -4 1 -6 1c-16.667 0 -27.334 -3.33301 -32.001 -10c-6 -6 -9 -18.667 -9 -38v-58c0 -24 -3.66699 -41 -11 -51c-7.33301 -9.33301 -20.333 -16.333 -39 -21c18.667 -4 31.667 -11 39 -21
c7.33301 -10.667 11 -27.667 11 -51v-58c0 -20 3 -33 9 -39c5.33301 -5.33301 16 -8 32 -8h1.5h4.5c0.666992 0 1.5 0.166992 2.5 0.5s2.16699 0.5 3.5 0.5v-29z" />
    <glyph glyph-name="bar" unicode="|" horiz-adv-x="49" 
d="M47 436v-526h-47v496c0 8 3 15 9 21s13.333 9 22 9h16z" />
    <glyph glyph-name="braceright" unicode="}" horiz-adv-x="183" 
d="M0 375c0 6 2.49902 11.166 7.49902 15.499s10.5 6.5 16.5 6.5c8 0 14.333 -0.333008 19 -1s10 -1.33398 16 -2.00098c10.667 -2 19.667 -5 27 -9c9.33301 -5.33301 15.666 -12.666 18.999 -21.999c4 -10 6 -26 6 -48v-61c0 -21.333 4 -37 12 -47
c8.66699 -8.66699 22.667 -13 42 -13h1h4h2.5h2.5v-50h-9c-19.333 0 -33.666 -4.66699 -42.999 -14c-8 -9.33301 -12 -24.666 -12 -45.999v-61c0 -22 -2 -37.667 -6 -47c-3.33301 -8.66699 -9.66602 -16 -18.999 -22c-8 -4 -17 -7 -27 -9c-11.333 -2 -25 -3 -41 -3h-4h-5
c-2.66699 0.666992 -5.66699 1 -9 1v50h1.5h4.5h3h2c16.667 0 27.667 2.66699 33 8c6 6 9 18.667 9 38v58c0 24.667 3.66699 41.667 11 51c6.66699 10 19.667 17 39 21c-19.333 4 -32.333 11 -39 21c-7.33301 8.66699 -11 25.667 -11 51v58c0 20 -3 33 -9 39
c-5.33301 6 -16.333 9 -33 9h-2h-3h-4.5h-1.5v28z" />
    <glyph glyph-name="asciitilde" unicode="~" horiz-adv-x="145" 
d="M0 105l0.000976562 30.001c0 12.667 6 21 18 25c9.33301 3.33301 19.5 3.16602 30.5 -0.500977l33 -11.5c11 -4 21.5 -6.33301 31.5 -7s18.667 4 26 14c0 -14 -0.5 -25.5 -1.5 -34.5s-7.5 -14.5 -19.5 -16.5c-10 -2 -20.5 -0.833008 -31.5 3.5s-21.833 8.33301 -32.5 12
s-20.834 5.16699 -30.501 4.5s-17.5 -7 -23.5 -19z" />
    <glyph glyph-name="cent" unicode="&#xa2;" horiz-adv-x="245" 
d="M50 -56l16.0029 56.999c-24 10.667 -42.333 27 -55 49c-11.333 22.667 -17 50.334 -17 83.001c0 44 10.667 78.333 32 103s51.666 37 90.999 37h6h6c2 -0.666992 4.16699 -1.16699 6.5 -1.5s4.5 -0.5 6.5 -0.5l11 40h26l-13 -46c20 -6 36 -17 48 -33
c10 -16 16.333 -36.333 19 -61h-67c-1.33301 8 -3.33301 15 -6 21c-3.33301 4.66699 -7.33301 9.66699 -12 15l-43 -154h0.5h0.5c3.33301 -0.666992 7 -1 11 -1c14.667 0 26 4 34 12c7.33301 7.33301 12.666 19.666 15.999 36.999h67
c-2 -33.333 -13.667 -59.666 -35 -78.999c-20 -18.667 -47.333 -28 -82 -28h-6.5h-6.5c-2.66699 0 -7.33398 0.666992 -14.001 2l-14 -52h-26zM127.003 214.999c-2 0.666992 -4.33301 0.999023 -7 0.999023h-2.5h-1.5c-18 0 -31 -7 -39 -21
c-9.33301 -14.667 -14 -35.667 -14 -63c0 -15.333 2 -29 6 -41c2.66699 -11.333 8 -20.666 16 -27.999z" />
    <glyph glyph-name="sterling" unicode="&#xa3;" horiz-adv-x="278" 
d="M46 107l-46 -0.000976562v44h50c-2.66699 12 -4.66699 20.333 -6 25h-44v44h32c-1.33301 6 -2.33301 11.833 -3 17.5s-1 11.5 -1 17.5c0 29.333 10.667 53.333 32 72c22 18 49.333 27 82 27c28 0 52.333 -7.66699 73 -23c20 -15.333 32 -38.333 36 -69l-36 -5
c-14 -2 -23.333 0.166992 -28 6.5s-7.33398 10.5 -8.00098 12.5c-8.66699 16.667 -22 25 -40 25c-15.333 0 -26.333 -4.66699 -33 -14c-8 -9.33301 -12 -19.666 -12 -30.999c0 -9.33301 2 -21.333 6 -36h48c4 0 10.667 -0.666992 20 -2s14 -10 14 -26v-16h-70
c3.33301 -16 5 -24.333 5 -25h44c5.33301 0 10 -2.5 14 -7.5s6 -10.5 6 -16.5l1 -20h-70c-4.66699 -12.667 -15 -28 -31 -46c8.66699 4 19.667 6 33 6c8.66699 0 25 -3 49 -9c13.333 -2.66699 22 -4 26 -4c12 0 28.667 4.66699 50 14l26 -57
c-19.333 -9.33301 -41.666 -14.333 -66.999 -15c-15.333 0 -34.333 3 -57 9c-28 6.66699 -46.333 10 -55 10c-20 0 -40 -6.66699 -60 -20l-26 57c24 16.667 39.333 35 46 55z" />
    <glyph glyph-name="section" unicode="&#xa7;" horiz-adv-x="184" 
d="M161 291l-24 -2.99902c-20 -4 -31.167 -0.666992 -33.5 10s-9.16602 16 -20.499 16c-8 0 -14 -2 -18 -6c-4 -3.33301 -6 -7.33301 -6 -12c0 -6 2.66699 -11.667 8 -17c3.33301 -3.33301 16 -12.333 38 -27s35.667 -24.667 41 -30c9.33301 -8 17 -17 23 -27
c4.66699 -10.667 7 -20.334 7 -29.001c0 -12 -3 -23 -9 -33c-5.33301 -10 -13.333 -18.667 -24 -26c7.33301 -8 12.666 -15.667 15.999 -23c4 -7.33301 6 -15.666 6 -24.999c0 -18.667 -7 -34 -21 -46c-12 -12 -31 -18 -57 -18s-45.333 6 -58 18
c-14.667 10.667 -23.334 27 -26.001 49l15 2c13.333 1.33301 21.833 0.5 25.5 -2.5l21.5 -18.5c6 -6 13.667 -9 23 -9c8 0 14.333 2.33301 19 7c4.66699 3.33301 7 8.33301 7 15s-2 12 -6 16c-4.66699 4.66699 -21 16 -49 34c-25.333 16.667 -43.333 31.667 -54 45
c-7.33301 12 -11 25.667 -11 41c0 9.33301 2.33301 20.666 7 33.999c4.66699 9.33301 13 18 25 26c-5.33301 4.66699 -9.66602 11.334 -12.999 20.001c-3.33301 5.33301 -5 12.666 -5 21.999c0 16.667 6.33301 30.667 19 42c12.667 12 30.667 18 54 18s42 -6 56 -18
c12.667 -11.333 20.667 -26.333 24 -45zM115 130.001c6 5.33301 10.001 10 12.001 14c2.66699 3.33301 4 7.66602 4 12.999c0 4.66699 -1.33301 9 -4 13c-4.66699 5.33301 -12.334 12 -23.001 20l-49 37c-3.33301 -1.33301 -7 -4.66602 -11 -9.99902
c-3.33301 -4.66699 -5 -9.66699 -5 -15c0 -13.333 8 -25.333 24 -36z" />
    <glyph glyph-name="dieresis" unicode="&#xa8;" horiz-adv-x="172" 
d="M124 354l39.999 0.000976562v-57c0 -19.333 -5.33301 -35.333 -16 -48c-12 -12.667 -28 -20.334 -48 -23.001v12c0 5.33301 5 11 15 17c4.66699 2.66699 8.33398 5.66699 11.001 9c4.66699 6 7.66699 13.333 9 22c0 2 -0.5 4 -1.5 6s-4.16699 3 -9.5 3v0h-23v37
c0 14.667 7.66699 22 23 22zM24.999 354.001l39.001 0.00195312v-57c0 -20.667 -5.33301 -36.667 -16 -48c-12 -12.667 -28 -20.334 -48 -23.001v12c-0 5.33301 5.33301 11 16 17c2 1.33301 3.83301 2.66602 5.5 3.99902s3.5 3 5.5 5c4 6.66699 6.66699 14 8 22
c1.33301 6 -2.33398 9 -11.001 9v0h-23v37c0 14.667 8 22 24 22z" />
    <glyph glyph-name="copyright" unicode="&#xa9;" horiz-adv-x="120" 
d="M57 346c-6 0 -12 -1 -18 -3c-7.33301 -4 -12.333 -7.66699 -15 -11c-2.66699 -2 -4.83398 -4.5 -6.50098 -7.5s-3.16699 -5.5 -4.5 -7.5c-2.66699 -8 -4 -14.333 -4 -19c0 -4 1.33301 -10 4 -18c3.33301 -7.33301 7 -12.333 11 -15c2.66699 -4 7.66699 -7.66699 15 -11
c6 -2 12 -3 18 -3c6.66699 0 13 1 19 3c2 1.33301 4.5 2.83301 7.5 4.5s5.5 3.83398 7.5 6.50098c3.33301 2.66699 7 7.66699 11 15c2 6 3 12 3 18c0 7.33301 -1.33301 13.666 -4 18.999c-3.33301 6.66699 -6.66602 11.667 -9.99902 15c-2 2 -4.5 3.83301 -7.5 5.5
s-5.5 3.5 -7.5 5.5c-6 2 -12.333 3 -19 3zM86 288c0 -8 -2.99902 -14 -8.99902 -18c-4.66699 -4.66699 -11.334 -7 -20.001 -7c-10.667 0 -18.334 3 -23.001 9c-5.33301 6 -8 14.667 -8 26c0 10.667 2.66699 19.334 8 26.001c6 6 14 9 24 9
c8.66699 0 15.334 -2.33301 20.001 -7c5.33301 -4.66699 8 -10.334 8 -17.001h-8c-2 0 -4.33301 1.33301 -7 4v0c0 -0.666992 -1 1 -3 5c-4 2 -7.33301 3 -10 3c-6.66699 0 -11.334 -2 -14.001 -6s-4 -9.66699 -4 -17c0 -8 1.33301 -13.667 4 -17
c2.66699 -4 7.33398 -6 14.001 -6c3.33301 0 6.66602 1 9.99902 3c2.66699 4 4.33398 7.33301 5.00098 10h13zM57.001 356c6.66699 0 13.999 -1.66699 21.999 -5c4.66699 -1.33301 11 -5.33301 19 -12c4.66699 -6.66699 8.66699 -13 12 -19c3.33301 -8 5 -15.333 5 -22
c0 -7.33301 -1.66699 -14.666 -5 -21.999c-1.33301 -4 -5.33301 -10 -12 -18c-8 -6.66699 -14.333 -11 -19 -13c-9.33301 -2.66699 -16.666 -4 -21.999 -4c-6 0 -13 1.33301 -21 4c-7.33301 2.66699 -13.666 7 -18.999 13c-6 5.33301 -10.333 11.666 -13 18.999
c-2.66699 6 -4 13 -4 21s1.33301 15.333 4 22s7 13 13 19s12 10.333 18 13c9.33301 2.66699 16.666 4 21.999 4z" />
    <glyph glyph-name="ordfeminine" unicode="&#xaa;" horiz-adv-x="109" 
d="M72 286c-3.33301 -1.33301 -6.49902 -2.66602 -9.49902 -3.99902s-6.16699 -2 -9.5 -2l-12 -3c-5.33301 -1.33301 -9.33301 -3.33301 -12 -6c-2.66699 -4 -4 -7.66699 -4 -11c0 -4.66699 1.66699 -8.66699 5 -12c4 -2.66699 8 -4 12 -4
c9.33301 0 16.666 2.66699 21.999 8s8 12.666 8 21.999v12zM104.001 273c0 -26.667 -8.16992 -42.501 -24.5029 -47.501s-30.166 -7.5 -41.499 -7.5c-12.667 0 -23.167 3.16699 -31.5 9.5s-12.5 16.833 -12.5 31.5c0 14 4 23.833 12 29.5s18 9.5 30 11.5
c4 1.33301 8.66699 2 14 2c14 2 21 6.33301 21 13c0 4.66699 -2.5 7.83398 -7.5 9.50098s-9.5 2.5 -13.5 2.5c-11.333 0 -18 -3.33301 -20 -10h-32c1.33301 10 5.33301 18.333 12 25c8.66699 8 21.334 12 38.001 12c18.667 0 32.334 -3.33301 41.001 -10
c10 -6 15 -15 15 -27v-44z" />
    <glyph glyph-name="registered" unicode="&#xae;" horiz-adv-x="120" 
d="M57 356c8 0 15.3311 -1.66797 21.998 -5.00098c8 -4 14.333 -8.33301 19 -13c6 -5.33301 10 -11.333 12 -18c3.33301 -8 5 -15.333 5 -22c0 -7.33301 -1.66699 -14.666 -5 -21.999s-7.33301 -13.333 -12 -18c-6 -6 -12.333 -10.333 -19 -13
c-9.33301 -2.66699 -16.666 -4 -21.999 -4c-7.33301 0 -14.666 1.66699 -21.999 5c-6.66699 2.66699 -13 6.66699 -19 12c-5.33301 6 -9.33301 12.333 -12 19c-2.66699 6 -4 13 -4 21c0 4 0.666992 9.33301 2 16c0.666992 2 1.5 4.16699 2.5 6.5s2.16699 4.83301 3.5 7.5
c4.66699 9.33301 11.667 16 21 20c8 5.33301 17.333 8 28 8zM32.998 267.999v57c0 4 2.33301 6 7 6h24c7.33301 0 12.333 -1.33301 15 -4c3.33301 -2.66699 5 -7.33398 5 -14.001c0 -4.66699 -0.666992 -7.66699 -2 -9c-2.66699 -3.33301 -5 -5.33301 -7 -6
c2.66699 -1.33301 4.66699 -2.66602 6 -3.99902c1.33301 -2.66699 2 -5.66699 2 -9v-8v-2.5v-2.5c0 -0.666992 0.166992 -1.5 0.5 -2.5s1.16602 -1.5 2.49902 -1.5h-15l-0.5 1.5c-0.333008 1 -0.5 1.83301 -0.5 2.5v1.5v2.5v7c-1.33301 4 -2.33301 6.66699 -3 8
c-1.33301 1.33301 -3.66602 2 -6.99902 2h-14v-25h-13zM45.998 303.999h16.001c3.33301 0 5.66602 0.666992 6.99902 2c1.33301 0.666992 2 2.66699 2 6s-0.666992 5.33301 -2 6c-2 2 -4.33301 3 -7 3h-16v-17zM56.999 345.999c-6 0 -11.998 -1 -17.998 -3
c-2.66699 -2 -5.33398 -3.66699 -8.00098 -5s-5 -3 -7 -5c-4 -4 -7.66699 -9.33301 -11 -16c-2.66699 -8 -4 -14.333 -4 -19c0 -4 1.33301 -10 4 -18c1.33301 -3.33301 4.66602 -8.33301 9.99902 -15c4 -4 9.33301 -7.66699 16 -11c6 -2 12 -3 18 -3s12 1 18 3
c6.66699 3.33301 12 7 16 11c4.66699 4.66699 8 9.66699 10 15c2.66699 5.33301 4 11.333 4 18s-1 12.667 -3 18c-3.33301 6.66699 -7 12 -11 16c-3.33301 3.33301 -8.33301 7 -15 11c-6 2 -12.333 3 -19 3z" />
    <glyph glyph-name="plusminus" unicode="&#xb1;" horiz-adv-x="198" 
d="M0 192v17c0 4 1.66699 8.33301 5 13s9 7 17 7h49v64h24c14.667 0 22 -7.33301 22 -22v-42h72v-37h-72v-64h-46v64h-71zM0 55v16c-0 14.667 7.33301 22 22 22h167v-38h-189z" />
    <glyph glyph-name="twosuperior" unicode="&#xb2;" horiz-adv-x="86" 
d="M0 240c0 10 2.66797 19.333 8.00098 28c3.33301 6 10 12.667 20 20c0.666992 0 1.66699 0.5 3 1.5s3 2.16699 5 3.5c14.667 9.33301 22 17.666 22 24.999c0 5.33301 -1.33301 9.33301 -4 12s-7 4 -13 4c-6.66699 0 -11 -1.66699 -13 -5
c-3.33301 -4.66699 -5 -9.66699 -5 -15v-1h-12c-6.66699 0 -9.33398 4 -8.00098 12c2 7.33301 5.33301 13.333 10 18c7.33301 7.33301 17.333 11 30 11c10.667 0 20 -3.33301 28 -10c7.33301 -6.66699 11 -15.334 11 -26.001c0 -7.33301 -2 -14 -6 -20
c-3.33301 -5.33301 -10.333 -11.666 -21 -18.999c-4 -2.66699 -8.83301 -5.66699 -14.5 -9s-8.5 -6.66602 -8.5 -9.99902h49v-20h-81z" />
    <glyph glyph-name="threesuperior" unicode="&#xb3;" horiz-adv-x="87" 
d="M1 276h21.999c0 -6.66699 1.33301 -11.667 4 -15c3.33301 -2.66699 8 -4 14 -4s10.333 1.33301 13 4c3.33301 2 5 6.33301 5 13c0 5.33301 -1.66699 9.66602 -5 12.999c-5.33301 2.66699 -11 4 -17 4h-0.5h-0.5h-1.5h-0.5v15h2c7.33301 0 12.333 1.33301 15 4
c3.33301 3.33301 5 7.33301 5 12c0 4 -1.33301 7.33301 -4 10s-6.33398 4 -11.001 4s-8.66699 -1.66699 -12 -5c-2.66699 -2 -4 -6 -4 -12v-1h-12v0c-6.66699 0 -9.33398 4 -8.00098 12c0.666992 5.33301 3.33398 10.333 8.00098 15c6.66699 6 16.334 9 29.001 9
c10.667 0 19.667 -3 27 -9c6.66699 -5.33301 10 -12.666 10 -21.999c0 -4.66699 -1 -9 -3 -13c-5.33301 -5.33301 -9 -8.33301 -11 -9c5.33301 -2 10 -5.33301 14 -10c2.66699 -4.66699 4 -10 4 -16c0 -12 -3.66699 -21 -11 -27c-9.33301 -6.66699 -19.666 -10 -30.999 -10
c-13.333 0 -23.333 3.33301 -30 10c-6.66699 5.33301 -10 14.333 -10 27v1z" />
    <glyph glyph-name="acute" unicode="&#xb4;" horiz-adv-x="98" 
d="M94 354l-60.999 -63h-33l28 51c1.33301 2 3.66602 4.5 6.99902 7.5s8 4.5 14 4.5h45z" />
    <glyph glyph-name="mu" unicode="&#xb5;" horiz-adv-x="229" 
d="M219 248v-145c0 -44.667 -11.667 -73.834 -35 -87.501s-48.666 -20.5 -75.999 -20.5c-8 0.666992 -15.5 1.33398 -22.5 2.00098s-13.833 1.66699 -20.5 3v-63v0c0 -8.66699 -3.16699 -16.167 -9.5 -22.5s-13.5 -9.5 -21.5 -9.5h-34v249v0v94h65v-158
c0 -15.333 4.66699 -26.5 14 -33.5s19.666 -10.5 30.999 -10.5c10.667 0 20.5 3.5 29.5 10.5s13.5 18.167 13.5 33.5v127v0c0 8 3.16699 15.167 9.5 21.5s13.833 9.5 22.5 9.5h34z" />
    <glyph glyph-name="ordmasculine" unicode="&#xba;" horiz-adv-x="118" 
d="M12 232c-12 12.667 -17.999 30.999 -17.999 54.999c0 20.667 5 36.667 15 48c8 10 18.667 15.833 32 17.5s25.666 0.833984 36.999 -2.49902c12.667 -5.33301 21.667 -14 27 -26c5.33301 -10 8 -22.667 8 -38c0 -20 -4 -35.333 -12 -46s-18 -17.334 -30 -20.001
c-10.667 -3.33301 -21.5 -3.66602 -32.5 -0.999023s-19.833 7 -26.5 13zM36.001 317.999c-7.33301 -8 -10.667 -19.333 -10 -34s3.66699 -24.667 9 -30c4 -5.33301 12.5 -7.83301 25.5 -7.5s19.5 13.5 19.5 39.5c0 24 -6.33301 36.5 -19 37.5s-21 -0.833008 -25 -5.5z" />
    <glyph glyph-name="onequarter" unicode="&#xbc;" horiz-adv-x="208" 
d="M33 132v90h-25v19c6 0 12 2 18 6s10.333 10.333 13 19h7v0c9.33301 0 14 -4.66699 14 -14v-120h-27zM156 0v30h-58v24l50 80h21c9.33301 0 14 -4.66699 14 -14v-8v0v-60h16v-22h-16v-30h-27zM0 0l148.001 255c2.66699 5.33301 6.16699 8.5 10.5 9.5
s9.16602 1.5 14.499 1.5h9l-154 -266h-28zM156.001 51v59l-37 -59h37z" />
    <glyph glyph-name="onehalf" unicode="&#xbd;" horiz-adv-x="206" 
d="M99 0c0 12 3.33398 23 10.001 33c4 7.33301 12 15.333 24 24c2 2 5 4 9 6c18 11.333 27 21.333 27 30c0 6 -2 10.667 -6 14c-3.33301 4 -8 6 -14 6c-7.33301 0 -12.666 -2.33301 -15.999 -7c-4 -4 -6 -10 -6 -18v-2h-14c-8.66699 0 -12 5 -10 15
c1.33301 8 5 15.333 11 22c9.33301 8.66699 21.333 13 36 13s26 -4 34 -12c8.66699 -8 13 -18.333 13 -31c0 -10 -2.33301 -17.667 -7 -23c-4 -7.33301 -12.333 -15 -25 -23c-4.66699 -4 -10.334 -7.83301 -17.001 -11.5s-10.334 -7.5 -11.001 -11.5h59v-24h-97z
M0.000976562 0l148.001 255c2.66699 5.33301 6.16699 8.5 10.5 9.5s9.16602 1.5 14.499 1.5h9l-154 -266h-28zM33.002 132v90h-25v19c6 0 12 2 18 6s10.333 10.333 13 19h7v0c9.33301 0 14 -4.66699 14 -14v-120h-27z" />
    <glyph glyph-name="threequarters" unicode="&#xbe;" horiz-adv-x="238" 
d="M29 0l147.002 255c3.33301 5.33301 7.16602 8.5 11.499 9.5s9.16602 1.5 14.499 1.5h8l-154 -266h-27zM185.002 0v30h-58v24l50 80h20c9.33301 0 14 -4.66699 14 -14v-8v0v-60h16v-22h-16v-30h-26zM185.002 51v59l-37 -59h37zM0.00195312 172l26 0.000976562
c0 -7.33301 2 -13 6 -17c4 -3.33301 9.33301 -5 16 -5c7.33301 0 12.666 1.66699 15.999 5c4 4 6 9 6 15c0 6.66699 -2.33301 11.667 -7 15c-4 4 -10.333 6 -19 6c-0.666992 0 -1.16699 -0.166992 -1.5 -0.5l-0.5 -0.5h-1.5h-0.5v19h3c7.33301 0 13 1.33301 17 4
c4 4 6 8.66699 6 14s-1.66699 9.66602 -5 12.999c-2.66699 2.66699 -7 4 -13 4c-7.33301 0 -12 -1.66699 -14 -5c-3.33301 -3.33301 -5 -8.33301 -5 -15v-1h-14v0c-9.33301 0 -12.666 4.66699 -9.99902 14c2 7.33301 5.33301 13.333 10 18c8 7.33301 19.333 11 34 11
c12.667 0 23.667 -3.33301 33 -10c8 -7.33301 12 -16.333 12 -27c0 -6.66699 -1.33301 -11.667 -4 -15c-2.66699 -4.66699 -7 -8.33398 -13 -11.001c8 -4 13.333 -8.33301 16 -13c4 -5.33301 6 -11.666 6 -18.999c0 -13.333 -4.66699 -24 -14 -32
c-10 -7.33301 -22.333 -11 -37 -11s-26.667 3.66699 -36 11c-8 8 -12 19 -12 33z" />
    <glyph glyph-name="questiondown" unicode="&#xbf;" horiz-adv-x="234" 
d="M75 254l62.999 0.00292969v-5v-4c-0.666992 -16 3.5 -28.167 12.5 -36.5s18.833 -16.833 29.5 -25.5s20.5 -18.834 29.5 -30.501s13.5 -28.5 13.5 -50.5c0 -28 -7.83301 -50 -23.5 -66s-34.5 -26.667 -56.5 -32c-22 -4 -44.333 -4.16699 -67 -0.5s-41 12.5 -55 26.5
c-8 6.66699 -14.5 15.167 -19.5 25.5s-7.5 20.833 -7.5 31.5c0 17.333 5.83301 26.5 17.5 27.5s26.5 1.5 44.5 1.5c0.666992 -19.333 5.33398 -33.333 14.001 -42c10 -12.667 26.167 -17.334 48.5 -14.001s33.5 18.666 33.5 45.999c0 12 -3.5 22 -10.5 30s-15.5 16 -25.5 24
c-20 15.333 -31.833 29.333 -35.5 42s-5.5 30 -5.5 52zM97.999 285.003c-16.667 0 -25 8.33301 -25 25v44h69v-69h-44z" />
    <glyph glyph-name="Agrave" unicode="&#xc0;" 
d="M148 344h56l125 -344h-75l-23 71h-134l-22 -71h-75l114 321c6 15.333 17.333 23 34 23zM100 431h44c10.667 0 17.667 -4 21 -12l28 -51h-33zM164 275l-48 -146h96z" />
    <glyph glyph-name="Aacute" unicode="&#xc1;" 
d="M148 344h56l125 -344h-75l-23 71h-134l-22 -71h-75l114 321c6 15.333 17.333 23 34 23zM243 431l-61 -63h-33l28 51c2.66699 8 9.66699 12 21 12h45zM164 275l-48 -146h96z" />
    <glyph glyph-name="Acircumflex" unicode="&#xc2;" 
d="M148 344h56l125 -344h-75l-23 71h-134l-22 -71h-75l114 321c6 15.333 17.333 23 34 23zM164 275l-48 -146h96zM203 406l31.999 -38h-41l-30 34l-21 -23c-4 -4 -7.5 -6.83301 -10.5 -8.5s-7.5 -2.5 -13.5 -2.5h-24l32 38c10.667 14 23.334 21 38.001 21
c14 0 26.667 -7 38 -21z" />
    <glyph glyph-name="Atilde" unicode="&#xc3;" 
d="M164 275l-48 -146h96zM148 344h56l125 -344h-75l-23 71h-134l-22 -71h-75l114 321c6 15.333 17.333 23 34 23zM102 368v27c0 10 5.33301 17.667 16 23c8 2.66699 17 2.33398 27 -0.999023s19.833 -6.83301 29.5 -10.5s19 -5.83398 28 -6.50098s17.167 3.33301 24.5 12
c0 -12 -0.5 -22 -1.5 -30s-6.83301 -13 -17.5 -15c-9.33301 -2 -19 -1 -29 3s-19.667 7.5 -29 10.5s-18.333 4.33301 -27 4s-15.667 -5.83301 -21 -16.5z" />
    <glyph glyph-name="Adieresis" unicode="&#xc4;" 
d="M164 275l-48 -146h96zM148 344h56l125 -344h-75l-23 71h-134l-22 -71h-75l114 321c6 15.333 17.333 23 34 23zM232 397v-29h-45v46h29c10.667 0 16 -5.66699 16 -17zM142 397v-29h-46v46h29c11.333 0 17 -5.66699 17 -17z" />
    <glyph glyph-name="Aring" unicode="&#xc5;" horiz-adv-x="346" 
d="M150 343h56.001l124 -343h-74l-24 69h-133l-23 -69h-74l114 320c5.33301 15.333 16.666 23 33.999 23zM166.001 369c5.33301 0 10 2 14 6c3.33301 4 5 9 5 15c0 4.66699 -1.66699 9.33398 -5 14.001c-4 4 -8.66699 6 -14 6s-10 -2 -14 -6
c-3.33301 -4.66699 -5 -9.33398 -5 -14.001c0 -6 1.66699 -11 5 -15c4 -4 8.66699 -6 14 -6zM203.001 390c0 -5.33301 -1.00098 -10 -3.00098 -14c-2.66699 -6 -5.33398 -10 -8.00098 -12c-4 -4 -8 -6.66699 -12 -8c-5.33301 -2 -10 -3 -14 -3
c-2.66699 0 -6.66699 0.666992 -12 2c-5.33301 2.66699 -9.33301 5 -12 7c-4 2 -7.33301 6 -10 12c-2 4.66699 -3 10 -3 16c0 4 1 8.66699 3 14c2.66699 5.33301 5.33398 9 8.00098 11c2 2.66699 6 5.33398 12 8.00098c4 2 8.66699 3 14 3c4 0 8.66699 -1 14 -3
c5.33301 -2.66699 9.33301 -5.33398 12 -8.00098c2.66699 -2 5.33398 -5.66699 8.00098 -11c2 -5.33301 3 -10 3 -14zM165 274l-47 -147h95z" />
    <glyph glyph-name="AE" unicode="&#xc6;" horiz-adv-x="536" 
d="M253 0v71h-133l-46 -71h-74l219 320c4 6.66699 10 12.167 18 16.5s15.667 6.5 23 6.5h56v0h186v-60h-179v-73h134v-22c-0.666992 -10 -4.5 -18.5 -11.5 -25.5s-15.5 -10.5 -25.5 -10.5h-97v-89h188v-63h-201h-57zM253 169v105l-95 -146h95v41z" />
    <glyph glyph-name="Ccedilla" unicode="&#xc7;" horiz-adv-x="322" 
d="M307 119c-3.33301 -40 -18.3311 -71.334 -44.998 -94.001c-27.333 -22 -63.333 -33 -108 -33c-52 0 -91.667 15.667 -119 47c-27.333 30 -41 74.333 -41 133c0 60 14 105 42 135c28.667 31.333 70 47 124 47c44 0 79 -11 105 -33c24.667 -21.333 38.667 -51.333 42 -90
h-43c-16 0 -27.333 7 -34 21v0c-4.66699 8.66699 -10.334 16.334 -17.001 23.001c-13.333 10 -31 15 -53 15c-30.667 0 -54.334 -10 -71.001 -30c-16 -20 -24 -49.333 -24 -88c0 -37.333 8 -66 24 -86c15.333 -20.667 38.333 -31 69 -31c21.333 0 39 5.33301 53 16
c12.667 10 21.667 26 27 48h69zM83.002 -72.001l-0.000976562 33.002c0 10.667 6 18.334 18 23.001c8.66699 3.33301 18.167 3.33301 28.5 0l31.5 -10.5c10.667 -3.66699 20.834 -5.83398 30.501 -6.50098s18.167 3 25.5 11c0 -12 -0.5 -22.833 -1.5 -32.5
s-7.5 -15.834 -19.5 -18.501c-9.33301 -1.33301 -19.333 0 -30 4s-21.167 7.66699 -31.5 11s-20 4.66602 -29 3.99902s-16.5 -6.66699 -22.5 -18z" />
    <glyph glyph-name="Egrave" unicode="&#xc8;" horiz-adv-x="262" 
d="M0 0v308c0 10 3.5 18.5 10.5 25.5s15.5 10.5 25.5 10.5h214v-59h-180v-74h134v-23c0 -10 -3.5 -18.5 -10.5 -25.5s-15.5 -10.5 -25.5 -10.5h-98v-88h180v-64h-250zM64 431h45.001c5.33301 0 9.66602 -1.5 12.999 -4.5s6 -5.5 8 -7.5l28 -51h-33z" />
    <glyph glyph-name="Eacute" unicode="&#xc9;" horiz-adv-x="262" 
d="M0 0v308c0 10 3.5 18.5 10.5 25.5s15.5 10.5 25.5 10.5h214v-59h-180v-74h134v-23c0 -10 -3.5 -18.5 -10.5 -25.5s-15.5 -10.5 -25.5 -10.5h-98v-88h180v-64h-250zM207 431l-60.999 -63h-33l28 51c1.33301 2 3.66602 4.5 6.99902 7.5s8 4.5 14 4.5h45z" />
    <glyph glyph-name="Ecircumflex" unicode="&#xca;" horiz-adv-x="262" 
d="M0 0v308c0 10 3.5 18.5 10.5 25.5s15.5 10.5 25.5 10.5h214v-59h-180v-74h134v-23c0 -10 -3.5 -18.5 -10.5 -25.5s-15.5 -10.5 -25.5 -10.5h-98v-88h180v-64h-250zM172 406l32.001 -38h-40l-31 34l-20 -23c-4 -4 -7.66699 -6.83301 -11 -8.5s-8 -2.5 -14 -2.5h-24l32 38
c10.667 14 23.667 21 39 21c13.333 0 25.666 -7 36.999 -21z" />
    <glyph glyph-name="Edieresis" unicode="&#xcb;" horiz-adv-x="262" 
d="M0 0v308c0 10 3.5 18.5 10.5 25.5s15.5 10.5 25.5 10.5h214v-59h-180v-74h134v-23c0 -10 -3.5 -18.5 -10.5 -25.5s-15.5 -10.5 -25.5 -10.5h-98v-88h180v-64h-250zM193 397v-29h-45v46h28c11.333 0 17 -5.66699 17 -17zM102 397v-29h-45v46h28
c11.333 0 17 -5.66699 17 -17z" />
    <glyph glyph-name="Igrave" unicode="&#xcc;" horiz-adv-x="74" 
d="M0 0v308c0 10 3.5 18.5 10.5 25.5s15.5 10.5 25.5 10.5h35v-344h-71zM-36 431h44c6 0 10.5 -1.5 13.5 -4.5l7.5 -7.5l28 -51h-33z" />
    <glyph glyph-name="Iacute" unicode="&#xcd;" horiz-adv-x="118" 
d="M0 0v308c0 10 3.5 18.5 10.5 25.5s15.5 10.5 25.5 10.5h35v-344h-71zM113 431l-60 -63h-33l28 51c2.66699 8 9.66699 12 21 12h44z" />
    <glyph glyph-name="Icircumflex" unicode="&#xce;" horiz-adv-x="110" 
d="M0 0v308c0 10 3.5 18.5 10.5 25.5s15.5 10.5 25.5 10.5h35v-344h-71zM74 406l31 -38h-40l-30 34l-21 -23c-7.33301 -7.33301 -15.333 -11 -24 -11h-23l32 38c10 14 22.333 21 37 21c13.333 0 26 -7 38 -21z" />
    <glyph glyph-name="Idieresis" unicode="&#xcf;" horiz-adv-x="120" 
d="M11 0v308c0 10 3.5 18.5 10.5 25.5s15.5 10.5 25.5 10.5h35v-344h-71zM115 397v-29h-46v46h29c11.333 0 17 -5.66699 17 -17zM24 397v-29h-45v46h28c11.333 0 17 -5.66699 17 -17z" />
    <glyph glyph-name="Eth" unicode="&#xd0;" horiz-adv-x="379" 
d="M70 0v149.001h-70v45h70v113c0 9.33301 3.5 17.666 10.5 24.999s15.5 11 25.5 11h98c52.667 0 92 -14.333 118 -43c26 -28 39 -71 39 -129c0 -31.333 -5 -59 -15 -83c-9.33301 -24 -23 -43 -41 -57c-14 -11.333 -29.667 -19.333 -47 -24c-16 -4.66699 -40.333 -7 -73 -7
h-115zM139 194.001h39c20 0 30 -10 30 -30v-15h-69v0v-87h56c32.667 0 56.667 8.66699 72 26c14.667 17.333 22 45 22 83c0 38.667 -7 67 -21 85s-35.333 27 -64 27h-65v-89z" />
    <glyph glyph-name="Ntilde" unicode="&#xd1;" horiz-adv-x="298" 
d="M0 0v308c0 10 3.5 18.5 10.5 25.5s15.5 10.5 25.5 10.5h38l140 -236v236h70v-344h-73l-141 237v-237h-70zM87 370v27.001c0 10.667 5.33301 18 16 22c8 2.66699 17 2.5 27 -0.5s19.833 -6.33301 29.5 -10s19 -5.83398 28 -6.50098s17.167 3.33301 24.5 12
c0 -12 -0.5 -22 -1.5 -30s-6.83301 -13 -17.5 -15c-9.33301 -2 -19 -1 -29 3s-19.667 7.5 -29 10.5s-18.333 4.33301 -27 4s-15.667 -5.83301 -21 -16.5z" />
    <glyph glyph-name="Ograve" unicode="&#xd2;" 
d="M65 172c0 -38.667 8.33301 -67.998 25 -87.998c16.667 -20.667 40.334 -31 71.001 -31c30 0 53.667 10.333 71 31c17.333 21.333 26 50.666 26 87.999s-8.66699 67 -26 89c-17.333 20.667 -41 31 -71 31c-30.667 0 -54.334 -10.333 -71.001 -31s-25 -50.334 -25 -89.001z
M79 431.002h45.001c5.33301 0 9.66602 -1.5 12.999 -4.5s6 -5.5 8 -7.5l27 -51h-32zM-5.99902 172.002c0 56 14.667 100.332 44 132.999c31.333 32.667 72.333 49 123 49c50 0 91 -16.333 123 -49c30 -33.333 45 -77.666 45 -132.999s-15 -99.333 -45 -132
c-30.667 -32 -71.667 -48 -123 -48c-52 0 -93 16 -123 48c-29.333 32 -44 76 -44 132z" />
    <glyph glyph-name="Oacute" unicode="&#xd3;" 
d="M65 172c0 -38.667 8.33301 -67.998 25 -87.998c16.667 -20.667 40.334 -31 71.001 -31c30 0 53.667 10.333 71 31c17.333 21.333 26 50.666 26 87.999s-8.66699 67 -26 89c-17.333 20.667 -41 31 -71 31c-30.667 0 -54.334 -10.333 -71.001 -31s-25 -50.334 -25 -89.001z
M228 431.002l-61 -63h-32l28 51c2.66699 8 9.66699 12 21 12h44zM-6 172.002c0 56 14.667 100.332 44 132.999c31.333 32.667 72.333 49 123 49c50 0 91 -16.333 123 -49c30 -33.333 45 -77.666 45 -132.999s-15 -99.333 -45 -132c-30.667 -32 -71.667 -48 -123 -48
c-52 0 -93 16 -123 48c-29.333 32 -44 76 -44 132z" />
    <glyph glyph-name="Ocircumflex" unicode="&#xd4;" 
d="M-6 172c0 56 14.667 100.332 44 132.999c31.333 32.667 72.333 49 123 49c50 0 91 -16.333 123 -49c30 -33.333 45 -77.666 45 -132.999s-15 -99.333 -45 -132c-30.667 -32 -71.667 -48 -123 -48c-52 0 -93 16 -123 48c-29.333 32 -44 76 -44 132zM199 405.999
l32.001 -38h-40l-31 34l-20 -23c-4 -4 -7.66699 -6.83301 -11 -8.5s-8 -2.5 -14 -2.5h-24l32 38c10.667 14 23.667 21 39 21c13.333 0 25.666 -7 36.999 -21zM65.001 171.999c0 -38.667 8.33301 -67.998 25 -87.998c16.667 -20.667 40.334 -31 71.001 -31
c30 0 53.667 10.333 71 31c17.333 21.333 26 50.666 26 87.999s-8.66699 67 -26 89c-17.333 20.667 -41 31 -71 31c-30.667 0 -54.334 -10.333 -71.001 -31s-25 -50.334 -25 -89.001z" />
    <glyph glyph-name="Otilde" unicode="&#xd5;" 
d="M-6 172c0 56 14.667 100.332 44 132.999c31.333 32.667 72.333 49 123 49c50 0 91 -16.333 123 -49c30 -33.333 45 -77.666 45 -132.999s-15 -99.333 -45 -132c-30.667 -32 -71.667 -48 -123 -48c-52 0 -93 16 -123 48c-29.333 32 -44 76 -44 132zM98 367.999v27.002
c0 10 5.66699 17.667 17 23c8 2.66699 17 2.33398 27 -0.999023s19.833 -6.83301 29.5 -10.5s19 -5.83398 28 -6.50098s17.167 3.33301 24.5 12c0 -12 -0.666992 -22 -2 -30s-7 -13 -17 -15c-9.33301 -2 -19 -1 -29 3s-19.833 7.66699 -29.5 11s-18.667 4.66602 -27 3.99902
s-15.5 -6.33398 -21.5 -17.001zM65 172.001c0 -38.667 8.33301 -67.998 25 -87.998c16.667 -20.667 40.334 -31 71.001 -31c30 0 53.667 10.333 71 31c17.333 21.333 26 50.666 26 87.999s-8.66699 67 -26 89c-17.333 20.667 -41 31 -71 31
c-30.667 0 -54.334 -10.333 -71.001 -31s-25 -50.334 -25 -89.001z" />
    <glyph glyph-name="Odieresis" unicode="&#xd6;" 
d="M-6 172c0 56 14.667 100.332 44 132.999c31.333 32.667 72.333 49 123 49c50 0 91 -16.333 123 -49c30 -33.333 45 -77.666 45 -132.999s-15 -99.333 -45 -132c-30.667 -32 -71.667 -48 -123 -48c-52 0 -93 16 -123 48c-29.333 32 -44 76 -44 132zM229 396.999v-29h-45
v46h28c11.333 0 17 -5.66699 17 -17zM138 396.999v-29h-45v46h28c11.333 0 17 -5.66699 17 -17zM65 171.999c0 -38.667 8.33301 -67.998 25 -87.998c16.667 -20.667 40.334 -31 71.001 -31c30 0 53.667 10.333 71 31c17.333 21.333 26 50.666 26 87.999s-8.66699 67 -26 89
c-17.333 20.667 -41 31 -71 31c-30.667 0 -54.334 -10.333 -71.001 -31s-25 -50.334 -25 -89.001z" />
    <glyph glyph-name="Oslash" unicode="&#xd8;" horiz-adv-x="347" 
d="M-6 172c0 56 14.667 100.332 44 132.999c31.333 32.667 72.333 49 123 49c44 0 80 -12 108 -36l23 27h39l-41 -48c26 -31.333 39 -73 39 -125c0 -55.333 -15 -99.333 -45 -132c-30.667 -32 -71.667 -48 -123 -48c-44.667 0 -80.667 11.333 -108 34l-23 -26h-38l40 47
c-25.333 30.667 -38 72.334 -38 125.001zM243 243.999l-146 -166.999c16 -16 37.333 -24 64 -24c30 0 53.667 10.333 71 31c17.333 21.333 26 50.666 26 87.999c0 28.667 -5 52.667 -15 72zM79 101l146.001 167.001c-16 16 -37.333 24 -64 24
c-30.667 0 -54.334 -10.333 -71.001 -31s-25 -50.334 -25 -89.001c0 -28 4.66699 -51.667 14 -71z" />
    <glyph glyph-name="Ugrave" unicode="&#xd9;" horiz-adv-x="289" 
d="M72 345v-214.998c0 -26.667 5 -46.334 15 -59.001c10.667 -12 27.667 -18 51 -18c22.667 0 39.667 6 51 18c10.667 12 16 31.667 16 59v215h71v-223c0 -42.667 -12 -75 -36 -97c-22 -22 -56 -33 -102 -33s-80 11 -102 33c-24 22 -36 54.333 -36 97v187
c0 9.33301 3.5 17.666 10.5 24.999s15.5 11 25.5 11h36zM72 431.002h45.001c5.33301 0 9.66602 -1.5 12.999 -4.5s6 -5.5 8 -7.5l28 -51h-33z" />
    <glyph glyph-name="Uacute" unicode="&#xda;" horiz-adv-x="289" 
d="M72 345v-214.999c0 -26.667 5 -46.334 15 -59.001c10.667 -12 27.667 -18 51 -18c22.667 0 39.667 6 51 18c10.667 12 16 31.667 16 59v215h71v-223c0 -42.667 -12 -75 -36 -97c-22 -22 -56 -33 -102 -33s-80 11 -102 33c-24 22 -36 54.333 -36 97v185
c0 10 3.5 18.833 10.5 26.5s15.5 11.5 25.5 11.5h36zM205 431.001l-60.999 -63h-32l27 51c1.33301 2 3.66602 4.5 6.99902 7.5s8 4.5 14 4.5h45z" />
    <glyph glyph-name="Ucircumflex" unicode="&#xdb;" horiz-adv-x="289" 
d="M72 345v-214.998c0 -26.667 5 -46.334 15 -59.001c10.667 -12 27.667 -18 51 -18c22.667 0 39.667 6 51 18c10.667 12 16 31.667 16 59v215h71v-223c0 -42.667 -12 -75 -36 -97c-22 -22 -56 -33 -102 -33s-80 11 -102 33c-24 22 -36 54.333 -36 97v187
c0 9.33301 3.5 17.666 10.5 24.999s15.5 11 25.5 11h36zM176 406.002l31.999 -38h-40l-31 34l-21 -23c-4 -4 -7.5 -6.83301 -10.5 -8.5s-7.5 -2.5 -13.5 -2.5h-24l32 38c10.667 14 23.334 21 38.001 21c14 0 26.667 -7 38 -21z" />
    <glyph glyph-name="Udieresis" unicode="&#xdc;" horiz-adv-x="289" 
d="M72 345v-214.998c0 -26.667 5 -46.334 15 -59.001c10.667 -12 27.667 -18 51 -18c22.667 0 39.667 6 51 18c10.667 12 16 31.667 16 59v215h71v-223c0 -42.667 -12 -75 -36 -97c-22 -22 -56 -33 -102 -33s-80 11 -102 33c-24 22 -36 54.333 -36 97v187
c0 9.33301 3.5 17.666 10.5 24.999s15.5 11 25.5 11h36zM115 397.002v-29h-45v46h28c11.333 0 17 -5.66699 17 -17zM206 397.002v-29h-45v46h28c11.333 0 17 -5.66699 17 -17z" />
    <glyph glyph-name="Thorn" unicode="&#xde;" horiz-adv-x="195" 
d="M50 25c0 -14 -6.16699 -21.668 -18.5 -23.001s-22.833 -2 -31.5 -2v343c8.66699 0 19.167 -0.666992 31.5 -2s18.5 -9 18.5 -23v-52c9.33301 4 18.666 6.33301 27.999 7s19 1 29 1c26 0 45.667 -10.833 59 -32.5s20 -45.167 20 -70.5s-6.66699 -48.666 -20 -69.999
s-33 -32 -59 -32c-10 0 -19.667 0.333008 -29 1s-18.666 3 -27.999 7v-52zM93 227.999c-12.667 0 -23.334 -5.5 -32.001 -16.5s-13 -24.167 -13 -39.5c0 -16 4.33301 -29.333 13 -40s19.334 -16 32.001 -16c12 0 22.5 5.33301 31.5 16s13.5 24 13.5 40
c0 15.333 -4.5 28.5 -13.5 39.5s-19.5 16.5 -31.5 16.5z" />
    <glyph glyph-name="germandbls" unicode="&#xdf;" horiz-adv-x="295" 
d="M0 -43v282c0.666992 32 12.5 59.167 35.5 81.5s50.5 33.5 82.5 33.5h44c34.667 0 61.334 -7.66699 80.001 -23c18.667 -14.667 28 -36 28 -64c0 -17.333 -3.66699 -32 -11 -44c-7.33301 -11.333 -17.333 -20.333 -30 -27c16.667 -7.33301 29.667 -17.666 39 -30.999
c8.66699 -12.667 13 -29.334 13 -50.001c0 -34 -10.667 -59.667 -32 -77c-22 -18 -53 -27 -93 -27h-55v62h50c20 0 34.333 3.33301 43 10c9.33301 6.66699 14 18 14 34c0 15.333 -4.33301 27 -13 35c-8.66699 6.66699 -23.334 10 -44.001 10h-50v59h47c17.333 0 30 3 38 9
c8.66699 6 13 15.333 13 28s-4 22 -12 28c-8.66699 5.33301 -21.667 8 -39 8h-21c-20.667 0 -35.667 -6.33301 -45 -19s-14 -25.667 -14 -39v-279h-68z" />
    <glyph glyph-name="agrave" unicode="&#xe0;" horiz-adv-x="229" 
d="M154 134c-9.33301 -4.66699 -22.334 -9.00293 -39.001 -13.0029l-23 -5c-12 -3.33301 -20.667 -7.66602 -26 -12.999c-4.66699 -7.33301 -7 -14.666 -7 -21.999c0 -10 3 -18 9 -24c6 -5.33301 14.667 -8 26 -8c18.667 0 33.334 5.33301 44.001 16s16 25.334 16 44.001v25
zM169.999 10.9971c-14 -7.33301 -28.834 -11.833 -44.501 -13.5s-29.5 -2.5 -41.5 -2.5c-24 0 -45 6.5 -63 19.5s-27 34.5 -27 64.5c0 28 8.16699 48 24.5 60s37.166 20 62.499 24c3.33301 0 7.33301 0.5 12 1.5s10 1.83301 16 2.5c29.333 4 44 12.667 44 26
c0 10 -5.16699 16.5 -15.5 19.5s-19.833 4.5 -28.5 4.5c-9.33301 0 -17.666 -1.33301 -24.999 -4s-12.666 -7.66699 -15.999 -15h-67c2.66699 20.667 12 37.667 28 51c18 15.333 43.667 23 77 23c37.333 0 65.333 -6.33301 84 -19c19.333 -13.333 29 -32 29 -56v-91
c0 -26.667 -4.83301 -47.5 -14.5 -62.5s-21.167 -25.833 -34.5 -32.5zM40.998 352.997h44.001c6 0 10.667 -1.5 14 -4.5s5.66602 -5.5 6.99902 -7.5l28 -51h-32z" />
    <glyph glyph-name="aacute" unicode="&#xe1;" horiz-adv-x="229" 
d="M177 353l-60.999 -63h-33l28 51c1.33301 2 3.66602 4.5 6.99902 7.5s8 4.5 14 4.5h45zM154.001 134c-9.33301 -4.66699 -22.334 -9.00293 -39.001 -13.0029l-23 -5c-12 -3.33301 -20.667 -7.66602 -26 -12.999c-4.66699 -7.33301 -7 -14.666 -7 -21.999
c0 -10 3 -18 9 -24c6 -5.33301 14.667 -8 26 -8c18.667 0 33.334 5.33301 44.001 16s16 25.334 16 44.001v25zM170 10.9971c-14 -7.33301 -28.834 -11.833 -44.501 -13.5s-29.5 -2.5 -41.5 -2.5c-24 0 -45 6.5 -63 19.5s-27 34.5 -27 64.5c0 28 8.16699 48 24.5 60
s37.166 20 62.499 24c3.33301 0 7.33301 0.5 12 1.5s10 1.83301 16 2.5c29.333 4 44 12.667 44 26c0 10 -5.16699 16.5 -15.5 19.5s-19.833 4.5 -28.5 4.5c-9.33301 0 -17.666 -1.33301 -24.999 -4s-12.666 -7.66699 -15.999 -15h-67c2.66699 20.667 12 37.667 28 51
c18 15.333 43.667 23 77 23c37.333 0 65.333 -6.33301 84 -19c19.333 -13.333 29 -32 29 -56v-91c0 -26.667 -4.83301 -47.5 -14.5 -62.5s-21.167 -25.833 -34.5 -32.5z" />
    <glyph glyph-name="acircumflex" unicode="&#xe2;" horiz-adv-x="229" 
d="M154 134c-9.33301 -4.66699 -22.334 -9.00293 -39.001 -13.0029l-23 -5c-12 -3.33301 -20.667 -7.66602 -26 -12.999c-4.66699 -7.33301 -7 -14.666 -7 -21.999c0 -10 3 -18 9 -24c6 -5.33301 14.667 -8 26 -8c18.667 0 33.334 5.33301 44.001 16s16 25.334 16 44.001v25
zM169.999 10.9971c-14 -7.33301 -28.834 -11.833 -44.501 -13.5s-29.5 -2.5 -41.5 -2.5c-24 0 -45 6.5 -63 19.5s-27 34.5 -27 64.5c0 28 8.16699 48 24.5 60s37.166 20 62.499 24c3.33301 0 7.33301 0.5 12 1.5s10 1.83301 16 2.5c29.333 4 44 12.667 44 26
c0 10 -5.16699 16.5 -15.5 19.5s-19.833 4.5 -28.5 4.5c-9.33301 0 -17.666 -1.33301 -24.999 -4s-12.666 -7.66699 -15.999 -15h-67c2.66699 20.667 12 37.667 28 51c18 15.333 43.667 23 77 23c37.333 0 65.333 -6.33301 84 -19c19.333 -13.333 29 -32 29 -56v-91
c0 -26.667 -4.83301 -47.5 -14.5 -62.5s-21.167 -25.833 -34.5 -32.5zM143.998 327.997l31.999 -38h-41l-30 33l-21 -22c-4 -4 -7.5 -6.83301 -10.5 -8.5s-7.5 -2.5 -13.5 -2.5h-24l32 38c10 13.333 22.667 20 38 20c14.667 0 27.334 -6.66699 38.001 -20z" />
    <glyph glyph-name="atilde" unicode="&#xe3;" horiz-adv-x="229" 
d="M154 134c-9.33301 -4.66699 -22.334 -9.00293 -39.001 -13.0029l-23 -5c-12 -3.33301 -20.667 -7.66602 -26 -12.999c-4.66699 -7.33301 -7 -14.666 -7 -21.999c0 -10 3 -18 9 -24c6 -5.33301 14.667 -8 26 -8c18.667 0 33.334 5.33301 44.001 16s16 25.334 16 44.001v25
zM169.999 10.9971c-14 -7.33301 -28.834 -11.833 -44.501 -13.5s-29.5 -2.5 -41.5 -2.5c-24 0 -45 6.5 -63 19.5s-27 34.5 -27 64.5c0 28 8.16699 48 24.5 60s37.166 20 62.499 24c3.33301 0 7.33301 0.5 12 1.5s10 1.83301 16 2.5c29.333 4 44 12.667 44 26
c0 10 -5.16699 16.5 -15.5 19.5s-19.833 4.5 -28.5 4.5c-9.33301 0 -17.666 -1.33301 -24.999 -4s-12.666 -7.66699 -15.999 -15h-67c2.66699 20.667 12 37.667 28 51c18 15.333 43.667 23 77 23c37.333 0 65.333 -6.33301 84 -19c19.333 -13.333 29 -32 29 -56v-91
c0 -26.667 -4.83301 -47.5 -14.5 -62.5s-21.167 -25.833 -34.5 -32.5zM42.998 289.997l0.000976562 26c0 11.333 5.66699 19 17 23c8 2.66699 17 2.33398 27 -0.999023l29.5 -10c9.66699 -3.33301 19 -5.33301 28 -6s16.833 3.33301 23.5 12
c0 -12.667 -0.5 -22.834 -1.5 -30.501s-6.5 -12.5 -16.5 -14.5c-9.33301 -2 -19 -1 -29 3s-19.833 7.5 -29.5 10.5s-18.834 4.33301 -27.501 4s-15.667 -5.83301 -21 -16.5z" />
    <glyph glyph-name="adieresis" unicode="&#xe4;" horiz-adv-x="229" 
d="M83 318v-28h-45v45h28c11.333 0 17 -5.66699 17 -17zM174 318v-28h-45v45h28c11.333 0 17 -5.66699 17 -17zM154 134c-9.33301 -4.66699 -22.334 -9.00293 -39.001 -13.0029l-23 -5c-12 -3.33301 -20.667 -7.66602 -26 -12.999c-4.66699 -7.33301 -7 -14.666 -7 -21.999
c0 -10 3 -18 9 -24c6 -5.33301 14.667 -8 26 -8c18.667 0 33.334 5.33301 44.001 16s16 25.334 16 44.001v25zM169.999 10.9971c-14 -7.33301 -28.834 -11.833 -44.501 -13.5s-29.5 -2.5 -41.5 -2.5c-24 0 -45 6.5 -63 19.5s-27 34.5 -27 64.5c0 28 8.16699 48 24.5 60
s37.166 20 62.499 24c3.33301 0 7.33301 0.5 12 1.5s10 1.83301 16 2.5c29.333 4 44 12.667 44 26c0 10 -5.16699 16.5 -15.5 19.5s-19.833 4.5 -28.5 4.5c-9.33301 0 -17.666 -1.33301 -24.999 -4s-12.666 -7.66699 -15.999 -15h-67c2.66699 20.667 12 37.667 28 51
c18 15.333 43.667 23 77 23c37.333 0 65.333 -6.33301 84 -19c19.333 -13.333 29 -32 29 -56v-91c0 -26.667 -4.83301 -47.5 -14.5 -62.5s-21.167 -25.833 -34.5 -32.5z" />
    <glyph glyph-name="aring" unicode="&#xe5;" horiz-adv-x="229" 
d="M154 135c-9.33301 -4.66699 -22.333 -9.00098 -39 -13.001c-16.667 -3.33301 -24.334 -5 -23.001 -5c-10 -2.66699 -18 -6.66699 -24 -12s-9 -13 -9 -23s3 -18 9 -24c7.33301 -5.33301 16 -8 26 -8c18.667 0 33.334 5.33301 44.001 16s16 25.334 16 44.001v25z
M145 323.999c0 -5.33301 -1.00098 -10 -3.00098 -14c-2.66699 -6 -5.33398 -10 -8.00098 -12c-4 -4 -8 -6.66699 -12 -8c-4 -2 -8.66699 -3 -14 -3c-4 0 -8 1 -12 3c-4.66699 0.666992 -8.33398 2.66699 -11.001 6c-4.66699 2.66699 -8 6.66699 -10 12
c-2.66699 4 -4 9.33301 -4 16c0 4 1 8.66699 3 14c2.66699 5.33301 5.33398 9 8.00098 11c2 2.66699 6 5.33398 12 8.00098c4.66699 2 9.33398 3 14.001 3c5.33301 0 10 -1 14 -3c5.33301 -2.66699 9.33301 -5.33398 12 -8.00098c2.66699 -2 5.33398 -5.66699 8.00098 -11
c2 -5.33301 3 -10 3 -14zM107.999 302.999c5.33301 0 10 2 14 6c3.33301 4 5 9 5 15c0 4.66699 -1.66699 9.33398 -5 14.001c-4 4 -8.66699 6 -14 6s-10 -2 -14 -6c-3.33301 -4.66699 -5 -9.33398 -5 -14.001c0 -6 1.66699 -11 5 -15c4 -4 8.66699 -6 14 -6zM169.999 11.999
c-18 -9.33301 -40.501 -14.833 -67.501 -16.5s-49.5 1.83301 -67.5 10.5c-27.333 14 -41 38.667 -41 74c0 28 8.16699 48 24.5 60s37.166 20 62.499 24c3.33301 0 7.33301 0.5 12 1.5s10 1.83301 16 2.5c29.333 4 44 12.667 44 26c0 10 -5.16699 16.5 -15.5 19.5
s-19.833 4.5 -28.5 4.5c-9.33301 0 -17.666 -1.33301 -24.999 -4s-12.666 -7.66699 -15.999 -15h-67c2.66699 20.667 12 37.667 28 51c18 15.333 43.667 23 77 23c37.333 0 65.333 -6.33301 84 -19c19.333 -13.333 29 -32 29 -56v-91c0 -26.667 -4.83301 -47.5 -14.5 -62.5
s-21.167 -25.833 -34.5 -32.5z" />
    <glyph glyph-name="ae" unicode="&#xe6;" horiz-adv-x="412" 
d="M154 131c-11.333 -6 -24.333 -10.333 -39 -13c-8 -2 -13.833 -3.33301 -17.5 -4l-5.5 -1c-12 -3.33301 -20.667 -7.66602 -26 -12.999c-4.66699 -4.66699 -7 -12 -7 -22s3 -17.333 9 -22c6 -6 14.333 -9 25 -9c19.333 0 34 5.33301 44 16
c11.333 11.333 17 25.666 17 42.999v25zM322 80l67.9961 0.00195312c-7.33301 -27.333 -21.333 -48.333 -42 -63c-20 -14.667 -45 -22 -75 -22c-34.667 0 -62.334 10.333 -83.001 31c-17.333 -14 -37.666 -22.667 -60.999 -26s-42.666 -5 -57.999 -5c-26 0 -45.333 7 -58 21
c-12.667 13.333 -19 33.666 -19 60.999s8.16699 46.833 24.5 58.5s36.833 19.5 61.5 23.5c4 0 8.16699 0.333008 12.5 1s9.5 1.66699 15.5 3c30 2.66699 45 11 45 25c0 5.33301 -1.16699 8.83301 -3.5 10.5s-5.16602 3.5 -8.49902 5.5c-6 4.66699 -17 7 -33 7
c-13.333 0 -24 -2.66699 -32 -8c-3.33301 -3.33301 -6 -7 -8 -11h-67c2.66699 21.333 11.667 38 27 50c19.333 15.333 45.333 23 78 23c36.667 0 64.334 -6.33301 83.001 -19c4.66699 -3.33301 7.33398 -5.33301 8.00098 -6c19.333 16.667 44.333 25 75 25
c38.667 0 68.667 -11.667 90 -35c20.667 -24 31 -57.667 31 -101v-6.5v-4.5v-3.5v-2.5h-169c0 -20 4.66699 -35 14 -45c9.33301 -10.667 22 -16 38 -16c10 0 19.667 2.33301 29 7c7.33301 5.33301 13 12.666 17 21.999zM223.996 156.002h99.002c0 16 -4.33301 29 -13 39
c-8.66699 8.66699 -21 13 -37 13c-14.667 0 -26.334 -4.33301 -35.001 -13c-8.66699 -10 -13.334 -23 -14.001 -39z" />
    <glyph glyph-name="ccedilla" unicode="&#xe7;" horiz-adv-x="246" 
d="M185 82h49.999c-7.33301 -28 -21.333 -49.333 -42 -64c-20.667 -15.333 -46.667 -23 -78 -23c-38 0 -67.667 12.333 -89 37c-21.333 24 -32 58.333 -32 103c0 42.667 10.333 76 31 100c21.333 24.667 51 37 89 37c40 0 71 -12 93 -36c12 -14.667 20.667 -31.667 26 -51
h-70c-3.33301 6.66699 -6.66602 11.667 -9.99902 15c-8.66699 9.33301 -21 14 -37 14c-14.667 0 -26.667 -4.66699 -36 -14c-12 -13.333 -18 -35.333 -18 -66s6 -52.334 18 -65.001c8.66699 -10.667 21.667 -16 39 -16c11.333 0 21 2.33301 29 7
c2 0.666992 3.83301 1.83398 5.5 3.50098l5.5 5.5c1.33301 2 4 4.66699 8 8s10 5 18 5zM57.999 -56v25.999c0 12 5.66699 19.667 17 23c8 3.33301 17 3.33301 27 0s19.833 -6.83301 29.5 -10.5s19 -5.66699 28 -6s17.167 3.5 24.5 11.5c0 -12 -0.5 -22 -1.5 -30
s-6.83301 -13 -17.5 -15c-9.33301 -2 -19 -1 -29 3s-19.833 7.66699 -29.5 11s-18.667 4.83301 -27 4.5s-15.5 -6.16602 -21.5 -17.499z" />
    <glyph glyph-name="egrave" unicode="&#xe8;" horiz-adv-x="250" 
d="M185 82l50 -0.00195312c-7.33301 -28 -21.333 -49.333 -42 -64c-20.667 -15.333 -46.667 -23 -78 -23c-38 0 -67.667 12.333 -89 37c-21.333 24 -32 58.333 -32 103c0 42.667 10.333 76 31 100c21.333 24.667 51 37 89 37c40 0 71 -12 93 -36
c21.333 -24.667 32 -59 32 -103v-7v-4c0 -3.33301 -0.333008 -5.66602 -1 -6.99902h-173c0.666992 -20.667 5.66699 -36 15 -46c8.66699 -10.667 21.667 -16 39 -16c11.333 0 21 2.33301 29 7c2 0.666992 3.83301 1.83398 5.5 3.50098l5.5 5.5
c0.666992 2 3.16699 4.66699 7.5 8s10.5 5 18.5 5zM51 352.998h44c6 0 10.667 -1.5 14 -4.5s6 -5.5 8 -7.5l27 -51h-32zM65 159.998l102 -0.000976562c-1.33301 18 -6 31.333 -14 40c-8.66699 9.33301 -21 14 -37 14c-14.667 0 -26.667 -4.66699 -36 -14
s-14.333 -22.666 -15 -39.999z" />
    <glyph glyph-name="eacute" unicode="&#xe9;" horiz-adv-x="250" 
d="M185 82l50 -0.00195312c-7.33301 -28 -21.333 -49.333 -42 -64c-20.667 -15.333 -46.667 -23 -78 -23c-38 0 -67.667 12.333 -89 37c-21.333 24 -32 58.333 -32 103c0 42.667 10.333 76 31 100c21.333 24.667 51 37 89 37c40 0 71 -12 93 -36
c21.333 -24.667 32 -59 32 -103v-7v-4c0 -3.33301 -0.333008 -5.66602 -1 -6.99902h-173c0.666992 -20.667 5.66699 -36 15 -46c8.66699 -10.667 21.667 -16 39 -16c11.333 0 21 2.33301 29 7c2 0.666992 3.83301 1.83398 5.5 3.50098l5.5 5.5
c0.666992 2 3.16699 4.66699 7.5 8s10.5 5 18.5 5zM187 352.998l-60.999 -63h-33l28 51c1.33301 2 3.66602 4.5 6.99902 7.5s8 4.5 14 4.5h45zM65.001 159.998l102 -0.000976562c-1.33301 18 -6 31.333 -14 40c-8.66699 9.33301 -21 14 -37 14
c-14.667 0 -26.667 -4.66699 -36 -14s-14.333 -22.666 -15 -39.999z" />
    <glyph glyph-name="ecircumflex" unicode="&#xea;" horiz-adv-x="250" 
d="M185 82l50 -0.00195312c-7.33301 -28 -21.333 -49.333 -42 -64c-20.667 -15.333 -46.667 -23 -78 -23c-38 0 -67.667 12.333 -89 37c-21.333 24 -32 58.333 -32 103c0 42.667 10.333 76 31 100c21.333 24.667 51 37 89 37c40 0 71 -12 93 -36
c21.333 -24.667 32 -59 32 -103v-7v-4c0 -3.33301 -0.333008 -5.66602 -1 -6.99902h-173c0.666992 -20.667 5.66699 -36 15 -46c8.66699 -10.667 21.667 -16 39 -16c11.333 0 21 2.33301 29 7c2 0.666992 3.83301 1.83398 5.5 3.50098l5.5 5.5
c0.666992 2 3.16699 4.66699 7.5 8s10.5 5 18.5 5zM154 327.998l31.999 -38h-40l-31 33l-21 -22c-4 -4 -7.5 -6.83301 -10.5 -8.5s-7.5 -2.5 -13.5 -2.5h-24l32 38c10 13.333 22.667 20 38 20c14.667 0 27.334 -6.66699 38.001 -20zM64.999 159.998l102 -0.000976562
c-1.33301 18 -6 31.333 -14 40c-8.66699 9.33301 -21 14 -37 14c-14.667 0 -26.667 -4.66699 -36 -14s-14.333 -22.666 -15 -39.999z" />
    <glyph glyph-name="edieresis" unicode="&#xeb;" horiz-adv-x="250" 
d="M185 82l50 -0.00195312c-7.33301 -28 -21.333 -49.333 -42 -64c-20.667 -15.333 -46.667 -23 -78 -23c-38 0 -67.667 12.333 -89 37c-21.333 24 -32 58.333 -32 103c0 42.667 10.333 76 31 100c21.333 24.667 51 37 89 37c40 0 71 -12 93 -36
c21.333 -24.667 32 -59 32 -103v-7v-4c0 -3.33301 -0.333008 -5.66602 -1 -6.99902h-173c0.666992 -20.667 5.66699 -36 15 -46c8.66699 -10.667 21.667 -16 39 -16c11.333 0 21 2.33301 29 7c2 0.666992 3.83301 1.83398 5.5 3.50098l5.5 5.5
c0.666992 2 3.16699 4.66699 7.5 8s10.5 5 18.5 5zM184 317.998v-28h-45v45h28c11.333 0 17 -5.66699 17 -17zM93 317.998v-28h-45v45h28c11.333 0 17 -5.66699 17 -17zM65 159.998l102 -0.000976562c-1.33301 18 -6 31.333 -14 40c-8.66699 9.33301 -21 14 -37 14
c-14.667 0 -26.667 -4.66699 -36 -14s-14.333 -22.666 -15 -39.999z" />
    <glyph glyph-name="igrave" unicode="&#xec;" horiz-adv-x="91" 
d="M6 266h36c9.33301 0 17.333 -3.33301 24 -10s10 -14.667 10 -24v-232h-70v266zM-39 352h43.001c6 0 10.667 -1.33301 14 -4s5.66602 -5 6.99902 -7l28 -51h-33z" />
    <glyph glyph-name="iacute" unicode="&#xed;" horiz-adv-x="91" 
d="M6 266h36c9.33301 0 17.333 -3.33301 24 -10s10 -14.667 10 -24v-232h-70v266zM112 352l-60.999 -62h-32l27 51c1.33301 2 3.66602 4.33301 6.99902 7s8 4 14 4h45z" />
    <glyph glyph-name="icircumflex" unicode="&#xee;" horiz-adv-x="91" 
d="M6 266h36c9.33301 0 17.333 -3.33301 24 -10s10 -14.667 10 -24v-232h-70v266zM80 327l31 -37h-40l-31 33l-20 -23c-6.66699 -6.66699 -14.667 -10 -24 -10h-24l32 37c10 14 22.667 21 38 21c13.333 0 26 -7 38 -21z" />
    <glyph glyph-name="idieresis" unicode="&#xef;" horiz-adv-x="91" 
d="M7 266h35c9.33301 0 17.333 -3.33301 24 -10s10 -14.667 10 -24v-232h-69v266zM19 318v-28h-45v45h28c11.333 0 17 -5.66699 17 -17zM109 318v-28h-45v45h29c10.667 0 16 -5.66699 16 -17z" />
    <glyph glyph-name="ntilde" unicode="&#xf1;" horiz-adv-x="243" 
d="M54 289v27.001c0 10 5.33301 17.667 16 23c8 2.66699 17 2.33398 27 -0.999023l29.5 -10c9.66699 -3.33301 19 -5.33301 28 -6s17.167 3.33301 24.5 12c0 -12.667 -0.5 -23 -1.5 -31s-6.83301 -13 -17.5 -15c-9.33301 -2 -19 -1 -29 3s-19.667 7.66699 -29 11
s-18.333 4.66602 -27 3.99902s-15.667 -6.33398 -21 -17.001zM232 0.000976562l-35.001 0.00195312c-10 0 -18.167 3.16699 -24.5 9.5s-9.5 14.5 -9.5 24.5v0v136c0 16 -4.83301 27.667 -14.5 35s-20.5 11 -32.5 11s-22.667 -3.66699 -32 -11s-14 -19 -14 -35v-170h-70v156
c0 45.333 11.833 75.666 35.5 90.999s49.834 23.666 78.501 24.999c29.333 0 56.333 -7.66699 81 -23s37 -46.333 37 -93v-156z" />
    <glyph glyph-name="ograve" unicode="&#xf2;" horiz-adv-x="250" 
d="M33 24c-14 12 -24 28.165 -30 48.498s-9 41.5 -9 63.5c0 18 2.5 36 7.5 54s12.833 33 23.5 45c17.333 20 39.666 31.833 66.999 35.5s52 1.5 74 -6.5c25.333 -10 44 -27.333 56 -52c11.333 -22 17 -47.667 17 -77c0 -21.333 -2.33301 -39.666 -7 -54.999
s-10.667 -28.666 -18 -39.999c-16.667 -22 -37 -35.333 -61 -40c-22 -6 -44.167 -6.5 -66.5 -1.5s-40.166 13.5 -53.499 25.5zM51 352.998h45.001c5.33301 0 9.66602 -1.5 12.999 -4.5s6 -5.5 8 -7.5l27 -51h-32zM81.001 199.998c-14 -15.333 -20.333 -38.167 -19 -68.5
s7 -51.5 17 -63.5c4 -5.33301 11 -9.83301 21 -13.5s20.167 -4 30.5 -1s19.5 10.5 27.5 22.5s12.333 31.333 13 58c0 24 -3.83301 42 -11.5 54s-16.5 19.667 -26.5 23s-20 3.5 -30 0.5s-17.333 -6.83301 -22 -11.5z" />
    <glyph glyph-name="oacute" unicode="&#xf3;" horiz-adv-x="250" 
d="M33 24c-14 12 -24 28.165 -30 48.498s-9 41.5 -9 63.5c0 18 2.5 36 7.5 54s12.833 33 23.5 45c17.333 20 39.666 31.833 66.999 35.5s52 1.5 74 -6.5c25.333 -10 44 -27.333 56 -52c11.333 -22 17 -47.667 17 -77c0 -21.333 -2.33301 -39.666 -7 -54.999
s-10.667 -28.666 -18 -39.999c-16.667 -22 -37 -35.333 -61 -40c-22 -6 -44.167 -6.5 -66.5 -1.5s-40.166 13.5 -53.499 25.5zM187 352.998l-60.999 -63h-33l28 51c1.33301 2 3.66602 4.5 6.99902 7.5s8 4.5 14 4.5h45zM81.001 199.998
c-14 -15.333 -20.333 -38.167 -19 -68.5s7 -51.5 17 -63.5c4 -5.33301 11 -9.83301 21 -13.5s20.167 -4 30.5 -1s19.5 10.5 27.5 22.5s12.333 31.333 13 58c0 24 -3.83301 42 -11.5 54s-16.5 19.667 -26.5 23s-20 3.5 -30 0.5s-17.333 -6.83301 -22 -11.5z" />
    <glyph glyph-name="ocircumflex" unicode="&#xf4;" horiz-adv-x="250" 
d="M33 24c-14 12 -24 28.165 -30 48.498s-9 41.5 -9 63.5c0 18 2.5 36 7.5 54s12.833 33 23.5 45c17.333 20 39.666 31.833 66.999 35.5s52 1.5 74 -6.5c25.333 -10 44 -27.333 56 -52c11.333 -22 17 -47.667 17 -77c0 -21.333 -2.33301 -39.666 -7 -54.999
s-10.667 -28.666 -18 -39.999c-16.667 -22 -37 -35.333 -61 -40c-22 -6 -44.167 -6.5 -66.5 -1.5s-40.166 13.5 -53.499 25.5zM154 327.998l31.999 -38h-40l-31 33l-21 -22c-4 -4 -7.5 -6.83301 -10.5 -8.5s-7.5 -2.5 -13.5 -2.5h-24l32 38c10 13.333 22.667 20 38 20
c14.667 0 27.334 -6.66699 38.001 -20zM80.999 199.998c-14 -15.333 -20.333 -38.167 -19 -68.5s7 -51.5 17 -63.5c4 -5.33301 11 -9.83301 21 -13.5s20.167 -4 30.5 -1s19.5 10.5 27.5 22.5s12.333 31.333 13 58c0 24 -3.83301 42 -11.5 54s-16.5 19.667 -26.5 23
s-20 3.5 -30 0.5s-17.333 -6.83301 -22 -11.5z" />
    <glyph glyph-name="otilde" unicode="&#xf5;" horiz-adv-x="250" 
d="M33 24c-14 12 -24 28.165 -30 48.498s-9 41.5 -9 63.5c0 18 2.5 36 7.5 54s12.833 33 23.5 45c17.333 20 39.666 31.833 66.999 35.5s52 1.5 74 -6.5c25.333 -10 44 -27.333 56 -52c11.333 -22 17 -47.667 17 -77c0 -21.333 -2.33301 -39.666 -7 -54.999
s-10.667 -28.666 -18 -39.999c-16.667 -22 -37 -35.333 -61 -40c-22 -6 -44.167 -6.5 -66.5 -1.5s-40.166 13.5 -53.499 25.5zM53 289.998l0.000976562 26c0 11.333 5.66699 19 17 23c8 2.66699 17 2.33398 27 -0.999023l29.5 -10c9.66699 -3.33301 19 -5.33301 28 -6
s17.167 3.33301 24.5 12c0 -12.667 -0.5 -22.834 -1.5 -30.501s-6.83301 -12.5 -17.5 -14.5c-9.33301 -2 -19 -1 -29 3s-19.833 7.5 -29.5 10.5s-18.834 4.33301 -27.501 4s-15.667 -5.83301 -21 -16.5zM81.001 199.998c-14 -15.333 -20.333 -38.167 -19 -68.5
s7 -51.5 17 -63.5c4 -5.33301 11 -9.83301 21 -13.5s20.167 -4 30.5 -1s19.5 10.5 27.5 22.5s12.333 31.333 13 58c0 24 -3.83301 42 -11.5 54s-16.5 19.667 -26.5 23s-20 3.5 -30 0.5s-17.333 -6.83301 -22 -11.5z" />
    <glyph glyph-name="odieresis" unicode="&#xf6;" horiz-adv-x="250" 
d="M33 24c-14 12 -24 28.165 -30 48.498s-9 41.5 -9 63.5c0 18 2.5 36 7.5 54s12.833 33 23.5 45c17.333 20 39.666 31.833 66.999 35.5s52 1.5 74 -6.5c25.333 -10 44 -27.333 56 -52c11.333 -22 17 -47.667 17 -77c0 -21.333 -2.33301 -39.666 -7 -54.999
s-10.667 -28.666 -18 -39.999c-16.667 -22 -37 -35.333 -61 -40c-22 -6 -44.167 -6.5 -66.5 -1.5s-40.166 13.5 -53.499 25.5zM184 317.998v-28h-45v45h28c11.333 0 17 -5.66699 17 -17zM93 317.998v-28h-45v45h28c11.333 0 17 -5.66699 17 -17zM81 199.998
c-14 -15.333 -20.333 -38.167 -19 -68.5s7 -51.5 17 -63.5c4 -5.33301 11 -9.83301 21 -13.5s20.167 -4 30.5 -1s19.5 10.5 27.5 22.5s12.333 31.333 13 58c0 24 -3.83301 42 -11.5 54s-16.5 19.667 -26.5 23s-20 3.5 -30 0.5s-17.333 -6.83301 -22 -11.5z" />
    <glyph glyph-name="divide" unicode="&#xf7;" horiz-adv-x="237" 
d="M0 148v24c-0 14.667 7.33301 22 22 22h204v-46h-226zM113 129c21.333 0 32 -10.667 32 -32c0 -9.33301 -3.16699 -17.166 -9.5 -23.499s-13.833 -9.5 -22.5 -9.5c-9.33301 0 -17.166 3.16699 -23.499 9.5s-9.5 14.166 -9.5 23.499c0 8.66699 3.16699 16.167 9.5 22.5
s14.166 9.5 23.499 9.5zM113 278c8.66699 0 16.167 -3.33301 22.5 -10s9.5 -14.334 9.5 -23.001s-3.16699 -16.167 -9.5 -22.5s-13.833 -9.5 -22.5 -9.5c-9.33301 0 -17.166 3.16699 -23.499 9.5s-9.5 13.833 -9.5 22.5s3.16699 16.334 9.5 23.001s14.166 10 23.499 10z" />
    <glyph glyph-name="oslash" unicode="&#xf8;" horiz-adv-x="263" 
d="M36 21l-16.9971 -20.998h-38l36 43c-8.66699 12 -14.834 26.167 -18.501 42.5s-5.5 33.166 -5.5 50.499c0 18 2.66699 36 8 54s13 33 23 45c17.333 20 39.666 31.833 66.999 35.5s52 1.5 74 -6.5c9.33301 -3.33301 19.333 -9 30 -17l17 19h39l-36 -42
c3.33301 -6 5.66602 -10 6.99902 -12c10.667 -22.667 16 -48.334 16 -77.001c0 -21.333 -2.33301 -39.666 -7 -54.999s-10.667 -28.333 -18 -39c-16 -22 -36.333 -35.667 -61 -41c-20.667 -6 -41.667 -6.83301 -63 -2.5s-39 12.166 -53 23.499zM152.003 198.002
c-11.333 12.667 -24.667 17.832 -40 15.499s-26 -6.83301 -32 -13.5c-10 -11.333 -16 -27.166 -18 -47.499s-1 -38.5 3 -54.5zM78.002 69c4 -5.33301 11 -10 21 -14s20.167 -4.5 30.5 -1.5s19.5 10.5 27.5 22.5s12.333 31.333 13 58c0 15.333 -1.33301 27 -4 35z" />
    <glyph glyph-name="ugrave" unicode="&#xf9;" horiz-adv-x="243" 
d="M232 266l0.000976562 -156c0 -47.333 -12.333 -78.333 -37 -93s-51.667 -22 -81 -22c-28.667 1.33301 -54.834 9.33301 -78.501 24s-35.5 45 -35.5 91v156h70v-170c0 -16 4.66699 -27.667 14 -35s20 -11 32 -11s22.833 3.66699 32.5 11s14.5 19 14.5 35v136v0
c0 9.33301 3.16699 17.333 9.5 24s14.5 10 24.5 10h35zM51.001 353h45c6 0 10.5 -1.5 13.5 -4.5l7.5 -7.5l28 -51h-33z" />
    <glyph glyph-name="uacute" unicode="&#xfa;" horiz-adv-x="243" 
d="M232 266l0.000976562 -156c0 -47.333 -12.333 -78.333 -37 -93s-51.667 -22 -81 -22c-28.667 1.33301 -54.834 9.33301 -78.501 24s-35.5 45 -35.5 91v156h70v-170c0 -16 4.66699 -27.667 14 -35s20 -11 32 -11s22.833 3.66699 32.5 11s14.5 19 14.5 35v136v0
c0 9.33301 3.16699 17.333 9.5 24s14.5 10 24.5 10h35zM187.001 353l-61.001 -63h-32l28 51c0.666992 2 2.83398 4.5 6.50098 7.5s8.5 4.5 14.5 4.5h44z" />
    <glyph glyph-name="ucircumflex" unicode="&#xfb;" horiz-adv-x="243" 
d="M232 266l0.000976562 -156c0 -47.333 -12.333 -78.333 -37 -93s-51.667 -22 -81 -22c-28.667 1.33301 -54.834 9.33301 -78.501 24s-35.5 45 -35.5 91v156h70v-170c0 -16 4.66699 -27.667 14 -35s20 -11 32 -11s22.833 3.66699 32.5 11s14.5 19 14.5 35v136v0
c0 9.33301 3.16699 17.333 9.5 24s14.5 10 24.5 10h35zM155.001 328l31 -38h-40l-30 33l-21 -22c-4 -4 -7.66699 -6.83301 -11 -8.5s-8 -2.5 -14 -2.5h-24l33 38c9.33301 13.333 22 20 38 20c13.333 0 26 -6.66699 38 -20z" />
    <glyph glyph-name="udieresis" unicode="&#xfc;" horiz-adv-x="243" 
d="M232 266l0.000976562 -156c0 -47.333 -12.333 -78.333 -37 -93s-51.667 -22 -81 -22c-28.667 1.33301 -54.834 9.33301 -78.501 24s-35.5 45 -35.5 91v156h70v-170c0 -16 4.66699 -27.667 14 -35s20 -11 32 -11s22.833 3.66699 32.5 11s14.5 19 14.5 35v136v0
c0 9.33301 3.16699 17.333 9.5 24s14.5 10 24.5 10h35zM94.001 318v-28h-46v45h29c11.333 0 17 -5.66699 17 -17zM184.001 318v-28h-45v45h28c11.333 0 17 -5.66699 17 -17z" />
    <glyph glyph-name="NULL" horiz-adv-x="0" 
 />
    <glyph glyph-name="nonmarkingreturn" horiz-adv-x="512" 
 />
  </font>
</defs>
</svg>
